<mxfile host="app.diagrams.net" modified="2023-09-24T10:42:20.637Z" agent="Mozilla/5.0 (Windows NT 10.0; Win64; x64) AppleWebKit/537.36 (KHTML, like Gecko) Chrome/116.0.0.0 Safari/537.36 OPR/102.0.0.0" etag="WnhTr5Lgpd0aAyxj16XE" version="21.8.1" type="device">
  <diagram name="PÃ¡gina-1" id="yUcK2hyl0fRDWkx4OFgt">
    <mxGraphModel dx="2970" dy="3516" grid="1" gridSize="10" guides="1" tooltips="1" connect="1" arrows="1" fold="1" page="1" pageScale="1" pageWidth="827" pageHeight="1169" math="0" shadow="0">
      <root>
        <mxCell id="0" />
        <mxCell id="1" parent="0" />
        <mxCell id="A_bzhGqca7OsKrDOXUyh-1" value="" style="strokeWidth=1;shadow=0;dashed=0;align=center;html=1;shape=mxgraph.mockup.containers.browserWindow;rSize=0;strokeColor=#666666;strokeColor2=#008cff;strokeColor3=#c4c4c4;mainText=,;recursiveResize=0;" parent="1" vertex="1">
          <mxGeometry x="-827" y="-1390" width="1485" height="2040" as="geometry" />
        </mxCell>
        <mxCell id="A_bzhGqca7OsKrDOXUyh-2" value="Page 1" style="strokeWidth=1;shadow=0;dashed=0;align=center;html=1;shape=mxgraph.mockup.containers.anchor;fontSize=17;fontColor=#666666;align=left;whiteSpace=wrap;" parent="A_bzhGqca7OsKrDOXUyh-1" vertex="1">
          <mxGeometry x="60" y="12" width="110" height="26" as="geometry" />
        </mxCell>
        <mxCell id="A_bzhGqca7OsKrDOXUyh-3" value="https://www.draw.io" style="strokeWidth=1;shadow=0;dashed=0;align=center;html=1;shape=mxgraph.mockup.containers.anchor;rSize=0;fontSize=17;fontColor=#666666;align=left;" parent="A_bzhGqca7OsKrDOXUyh-1" vertex="1">
          <mxGeometry x="130" y="60" width="250" height="26" as="geometry" />
        </mxCell>
        <mxCell id="qNrw7rNe4hOEklDcknfd-1" value="" style="rounded=0;whiteSpace=wrap;html=1;fillColor=#000033;strokeColor=#6c8ebf;" parent="A_bzhGqca7OsKrDOXUyh-1" vertex="1">
          <mxGeometry y="100" width="1480" height="60" as="geometry" />
        </mxCell>
        <mxCell id="qNrw7rNe4hOEklDcknfd-2" value="" style="shape=image;verticalLabelPosition=bottom;labelBackgroundColor=default;verticalAlign=top;aspect=fixed;imageAspect=0;image=data:image/png,iVBORw0KGgoAAAANSUhEUgAAAIQAAACECAMAAABmmnOVAAAAYFBMVEUAAAD///89PT2YmJjBwcHs7OwgICAjIyP7+/sxMTHU1NTo6Oj19fXLy8v4+PgbGxuAgIBLS0tEREQLCwuOjo7b29tWVlYUFBStra1ycnJjY2OIiIinp6dbW1u4uLgpKSmGNJ26AAAE0UlEQVR4nO2Z6ZKzKhCGG9FERRR3ccv93+XXBjHGLM6JQ6ZOFe+P1Jg48EgvNC2AlZWVlZWVlZWVlZWVlZWVldX/R0lbpVlwSer8rwgc0dA0OCd/BoBquMDPS1tQSkV1/guENKIA0o2Ill82IvguwxAJqEpyk+9PnyWtvsdQez0IXwOwXrbD0ErRlLggXfIliIbBoBH4sP5l6Esypl+BIBK8maF7+PFEy1CYZ5B+ImYG+uz3fGi4NA0xhsAVg/fqloBywz7Km5q9MsZNtDfpG3nZBypBxG+fNhDiYhLCURCR8/5ORwzvbzgg3lxUcHg7EJhZpak06rqgsmW0b/W8yszscLTU0fGTQAyy2gRE6tf0TZp4xDiZoCDDRUGUP7u/NrGf8HF2CvLDGMwN+IVgUPwXeyiQzHnuHInzme96ElSm8KZxV4UFB0rWijjVYZzh5bOQDvD77BOIvtSTFXgV3iZ1NxBTWm3UAjgT82PWcNgLuF05UXpW+Yqd9iAICXMNQcJtMXq+/vNHENCE0KkZ+n0INJKGIOFmIGXKzyByUum5032Iq/86K6BFc9L7DGLKmum82CB3IbzTAjEt3aKRHIIAr4BGjdCBFKLcQDDRCSGorgLFDWIV1j05CFH5zmwHf9qv3Q2Etj3T398grhF1x/AxxBSmqUoWrH4NMRejbA0x73sdOQ6Ro0HE8pz8BUSgLqM7CH+qyFae9DkEjt9qz6L6sR4gMnXp3UGQKIN2dXkAAgQmwFAvcP8cYrZ7eQ9BvNZfXx6AgKaEi/K8eFCLsoUYYnXZbCA2OgIB4QiOmiYOrhQLhDdO4noWaQiiTpIaPIqxqszsTBQvkhUGhxmI0WOMRRj0UlGwDOP0BYRcQayS/PL3xxB8mUDnArTItp5QamAFsSo/wvPvQHgtUszhhhapnkGo3WKByDVFCMnvQERZFXW6Y+K18AQizu8h4KQiCh3l8ErMibqFNhKaIsZVmY+pZVnqjlazgYDrUZadfwFi3kNHPIfgJqk7N92cOaY8kem1qDYQE4U3FeqHIXTuH6sgRbOn3gLlzhCak5T1BgKy8HpYOAwR6NWOPW+aO5v9rQyg8BVEMufLdWVF1mMchlieU4kvQRsNuMers5n2UsynhiB0wTILk5WuUtAT5x6OjkZuDMK5p8DQkLOJmB512bBbUxAQ8DXEGFEIZi5fl3D6DpaYgsAn1e1t1gRwZmGymKRUDRSdE0nloAOj4jsI9d1e22lXl1QWXeuow38TYe7SFXZ/jcJLoJTD+TTp/gj27LvDknEPtatNsN/YNdLEwbOlh/Wj9tiw3WEw1XEVcZ9Dr9NUuNPqBEMvjhzOWki1TXz+ppcppCkIHNvHk8hikzdG4dXZjFdc1fhYybRLDRXRp70YQcAx0tmblbkMM7dcMOKwe0gG0uew47lH1YZTiLa3ujbidN0BPmNakyfDEHjyCfFEAE5/e2dI/HKknZSy6Ce4ETqDLqGVul6P3iC5R57IheoL76lQWV9ymWNCcCP/HiHCaqzfH+CXJDhzJ9NXxVhqED8sLiCab72+vEq6jKsXt3VQtW027VjCfffyyoiCgfKQN0VbpWlatd3oFkf37w+VStqPrus2VHznBa6VlZWVlZWVlZWVlZWVlZWV1W/pH4yyOPt3DC3wAAAAAElFTkSuQmCC;" parent="A_bzhGqca7OsKrDOXUyh-1" vertex="1">
          <mxGeometry y="100" width="60" height="60" as="geometry" />
        </mxCell>
        <mxCell id="qNrw7rNe4hOEklDcknfd-5" value="" style="verticalLabelPosition=bottom;shadow=0;dashed=0;align=center;html=1;verticalAlign=top;strokeWidth=1;shape=mxgraph.mockup.graphics.simpleIcon;strokeColor=#999999;" parent="A_bzhGqca7OsKrDOXUyh-1" vertex="1">
          <mxGeometry y="160" width="740" height="710" as="geometry" />
        </mxCell>
        <mxCell id="qNrw7rNe4hOEklDcknfd-8" value="" style="verticalLabelPosition=bottom;shadow=0;dashed=0;align=center;html=1;verticalAlign=top;strokeWidth=1;shape=mxgraph.mockup.graphics.simpleIcon;strokeColor=#999999;" parent="A_bzhGqca7OsKrDOXUyh-1" vertex="1">
          <mxGeometry x="740" y="160" width="740" height="710" as="geometry" />
        </mxCell>
        <mxCell id="qNrw7rNe4hOEklDcknfd-9" value="&lt;h1&gt;Heading&lt;/h1&gt;&lt;p&gt;Lorem ipsum dolor sit amet, consectetur adipisicing elit, sed do eiusmod tempor incididunt ut labore et dolore magna aliqua.&lt;/p&gt;" style="text;html=1;strokeColor=none;fillColor=none;spacing=5;spacingTop=-20;whiteSpace=wrap;overflow=hidden;rounded=0;" parent="A_bzhGqca7OsKrDOXUyh-1" vertex="1">
          <mxGeometry x="740" y="750" width="190" height="120" as="geometry" />
        </mxCell>
        <mxCell id="qNrw7rNe4hOEklDcknfd-10" value="&lt;h1&gt;Heading&lt;/h1&gt;&lt;p&gt;Lorem ipsum dolor sit amet, consectetur adipisicing elit, sed do eiusmod tempor incididunt ut labore et dolore magna aliqua.&lt;/p&gt;" style="text;html=1;strokeColor=none;fillColor=none;spacing=5;spacingTop=-20;whiteSpace=wrap;overflow=hidden;rounded=0;" parent="A_bzhGqca7OsKrDOXUyh-1" vertex="1">
          <mxGeometry y="750" width="190" height="120" as="geometry" />
        </mxCell>
        <mxCell id="Uzhfiwogue9IJAyO5cRf-1" value="inicio" style="text;align=center;html=1;verticalAlign=middle;whiteSpace=wrap;rounded=0;fontColor=#FFFFFF;" vertex="1" parent="A_bzhGqca7OsKrDOXUyh-1">
          <mxGeometry x="1080" y="115" width="60" height="30" as="geometry" />
        </mxCell>
        <mxCell id="Uzhfiwogue9IJAyO5cRf-2" value="hombre" style="text;align=center;html=1;verticalAlign=middle;whiteSpace=wrap;rounded=0;fontColor=#FFFFFF;" vertex="1" parent="A_bzhGqca7OsKrDOXUyh-1">
          <mxGeometry x="1167" y="115" width="60" height="30" as="geometry" />
        </mxCell>
        <mxCell id="Uzhfiwogue9IJAyO5cRf-5" value="mujer" style="text;align=center;html=1;verticalAlign=middle;whiteSpace=wrap;rounded=0;fontColor=#FFFFFF;" vertex="1" parent="A_bzhGqca7OsKrDOXUyh-1">
          <mxGeometry x="1267" y="115" width="60" height="30" as="geometry" />
        </mxCell>
        <mxCell id="Uzhfiwogue9IJAyO5cRf-3" value="contacto" style="text;align=center;html=1;verticalAlign=middle;whiteSpace=wrap;rounded=0;fontColor=#FFFFFF;" vertex="1" parent="A_bzhGqca7OsKrDOXUyh-1">
          <mxGeometry x="1347" y="115" width="60" height="30" as="geometry" />
        </mxCell>
        <mxCell id="Uzhfiwogue9IJAyO5cRf-7" value="" style="shape=image;verticalLabelPosition=bottom;labelBackgroundColor=default;verticalAlign=top;aspect=fixed;imageAspect=0;image=data:image/jpeg,/9j/4AAQSkZJRgABAQAAAQABAAD/2wCEAAkGBw4QEBEOEBEQDw4PDhEODg4PEBAODg8OFhIXFxYSFhYZHSoiJhsnHBYWIzMnJystMD0wGCE2Ozg7OiowMDIBCwsLDw4PGBERGy0eHiEtMTEtLTEwLy8vLy8tLy0tLy0vLS0vLy0vLy0vLy8vLy8vLS8vLzAvLS8vLy8tLy8vMf/AABEIAOEA4QMBIgACEQEDEQH/xAAcAAEAAQUBAQAAAAAAAAAAAAAABwECAwQGBQj/xABMEAACAQIBBAwGDwcEAwAAAAAAAQIDBBEFBhIhBxMiMUFRYXF0gZGzNFSTobHRFBUXI0JSU2KSlMHC0tPwFnKCg6LD4SQy4uM1svH/xAAaAQEAAgMBAAAAAAAAAAAAAAAAAgMBBAUG/8QAOBEAAgECAQgHBwQCAwAAAAAAAAECAxEEBRIhMVFxobETgZHB0eHwFBU0QUJSYSIzYsIkMiNT8f/aAAwDAQACEQMRAD8AnEAAAAAAAAAAAAAAAAAAAAAAAAAAAAAAAAAAAAAAAAAAAAAAAAAAAA8vLOXbSzjpXNaFPFYxi8ZVJfuwWMn1IzGLk7JXYPUBHN7st2kW1St69RL4UnCjF82tvtSNT3X4+JS+sL8s3I5OxL+jilzZHORKIIu916PiUvrC/LK+69HxJ/WF+WZ92Yr7OK8RnIlAEXrZdj4k/rC/LLlstrxJ/WF+WYeTsSvp4rxJLSScCMlstLxJ/WF+WVWywvE39YX5ZF4HEL6eK8SShJkmAjT3V14m/rC/LK+6svE35f8A4EXg6y+nivEl0U9hJQI291VeJvy//Ae6qvE35dfgMey1tnFeJLoKmwkkEb+6ovE39YX4B7qa8Ul5f/rMezVdnFeI9nqbORJAI391JeKS8v8A9ZsW2yfbt++W9WC46c4VMO3RMOhUXy5GfZqv28iQAePkfOKzu9VGqpTwxdKW4qpcei9eHKtR7BU007MpacXZqwABgwAAAAAAAAAADzM4sqxs7WtdSWO1wxjF6tOo3hCPXJpdZlJtpLWwczsg57ewV7Gt9GV5OOMpPdQt4Pek1wzfAut8CcMXVepVnKpUnKpUm8ZznJylJ8rfoMl1XnVnOrUk5VKk3OcnvuTeLf8AgxaJ6bC0IYeNlr+b2+RlwbLcCqiXqJeomw6liUaRj0CuiZdEaJHpSzoTEolyiZdErokXUJKlYsSLlEuSL0imUy6MC1IuSLki5I15TNiMSzAYGTAYFbmy1RLMBgXYDAi5ssUCmBXArgXYFTkWKAg3FqUW4yi8Yyi3GUZLeaa1pkmZj55yrSja3Txqvc0a71bY/iT+dxPh3t/fjPAujjvrFNa008GnxplM7SWkxVw8asbS7dnrifRQPBzNyv7MtIVJa6sHtNblqRS3XWmn1nvGm9B56cHCTjLWgAARAAAAAABHuzJctW1Cinhtlw5y5Y04PV2zi+okIjXZlWqz56/opmxhP3ov1qJ01eaRFygXaBkUSuidrpDfVIxKJ62QM3rm9noUIYqOG2VZbmlT/elx8ixZfm5kWd7cQt4blPd1amGO10l/ulz60lytEx16tpkq01La6NNaMIxwc6tRreXHN4Y4vlb1I1a+Kcf0x0yZXUeY1FK8meJkjY1s6STryncz4Vi6VJPkjF49rZ7kc2MlxWHsS0/ipU5PtksSMMvZ7Xt1JqM3b0fg0qMnGTXzqi1t82C5DmZpyek3pN77lum+tmt0VWemc/XagsLUlplKxO/7O5L8Us/IUfUP2dyX4pZ+Qo+ogdUlxeZFVSXEuxEXh/58PMl7G/ufZ5k7/s9kzxSz8hR9RX9ncmeKWnkKPqIJVJcXmRcqS4l2Ii6L+99nmZWCf38PMnP9nsmeK2fkKPqK/s/kzxWz8hR9RBm1R4l2IbWuJdiI9H/J+usmsDJ/W+zzJz9oMmeK2nkKXqHtDkzxW08hS9RBmguL0FNBcXmRjo/5P11klk+X/Y+zzJ0ebeTZavYtr/DRpp+ZHkZU2PrCom6anbz306ctKGPLCWOrmwIkjDDWtT40sGe9kbOy+tWsKsqtNb9Kq3Ug1xJvWup9Ri0lqkS9hrQ006mns72Ys4c17mye7SlSbwhXhjtbfFLhi+R9TZ42BNmRsr22UrdrRTxWhXoVMJOOPA1wxevB8nGsCNM8M33ZV9GOMqFXGdKb1vBb8G+NYrqa5Qqj1PWXYTEOcnSqK01x8+Fjn8BgVKhyOlmne7E9y1UuKOOqVONRLicZOLf9UewksivYq8LqdFl3tMlQpb0nncpRtiHuXIAAwaIAAAAAAI32Ylqs+ev/AGiSCOdl5arTnr/2y2g7VE9/Jl+GV6sV61MjVRK6Jk0Rom66h2swlTYtyYqVpK4a3dxN4PhVKDcYr6Wm+tHG5/5Ylc3c4J+828pUKceDSTwqT53JYc0UShmqlGwtcPFac+twUn52Qdi5Nyety3TfG3rZrQlecpM0sLDPq1Jv5aOfgY9EYGTRGBd0h0MwswKpF2BXAi5mcwtwLkiuBV6t/VzkHMkobCmAwKp472vmYwIZxYoFowLj180bOnWvqFOqk6cpycovem4wlJRfI2l6OEZwk1CLk9SVzyHTeClg9F6lLB6L5mW4H0DcWlKpTdGcIzpSjoyptJxceLAge/pRhVqwg9KEak4Qlv6UIzai+xIhnFGDxaxGcs21us3M2srStLinWTehjoVY8EqTe6XVvrlSJRz4yfG4sarWuVGLuKbWv/YsZYc8dJdZDi+0nDIq2ywoJ69OypKXLjSSZBs18px6OdOtHWny0r1sIOARUNnatY7LYr8KqdFl3tMlQizYr8KqdFl3lMlMweZyp8Q9y5AAA54AAAAAAI72XFqtOev/AGyRCPtlharT96t/bJQdpXNnBq9ePXyZHaiFEyKJcomekPRKJNGb3/j7bodLukQfCOpc32E5ZA8BtuiUu7RCUY/rqIqVjnZNV5Vd6/sY8BgZNErgOkOrmGLRN/JGR693Pa6MdJrXOb3MILjlLg9PEZMi5KqXVaFCGpy1ym9apwX+6b/W+0iWqcLXJttwU6VNYylqc6lR8L45P9akZz2aWLxPQ2hFXm9S2Hi5I2P7SklKu5XE99ptwop8kVrfW3zHuv2uttT9iW74ntNF+fAjfL2eNzctxhJ29HeUKcmqkl8+a19SwXPvnN9e/rZFsoWT61XTWnb8etC6rk1qvk243ClZ18fgaVCrj1azy8rZi2NbF007apwOlrp48tN6sObAid6z28iZ03lo0lJ1aS36NRuUMOKL349WrkYuZeTqtLTRqadmry7VYwZfzeuLKSjVjpQk8KdWGLhPk5HyPznkwnKLUotxlFqUZRbUoyTxTT4yasnX1rlK3luVOEloVaU8HKEuJ+lNc6IuzqyDOzrOm8ZUZ4zo1HvyhwxfzlvPqfCZubGDxbqt0qitNcfPhYzXOeeUKlJ0pVUk46MpwjGFSS4d0t7qwZz+ABi5v06MKd1BJX2BE45ueA2vQ6PdIg5E45ueA2vQ6PdowcvLC/44b+4g2JUoioO01pZ2exX4VU6LLvKZKZFmxX4VU6LLvKZKYR5fKvxL3LkAAZOcAAAAAADgdlRarXnrf2zvjhNlBY+xeet9ww3ZXNvAL/Ih18mcAohRMygV0DVdQ9QkS/kLwG36HS7pEKqJNeRPArfolLu0Qyo/YWzlZROXktfrrb1/Yx4FMDLojDDX1leeddLSSVsdZLVK3dxJe+XEng+FUovCK63pPrRyefOWHc3EqcX7zQlKnBcEprVOfbqXIuVkjJ+x7HFb9CyxXPClj9hDLWt85bOVkkcfJ8emr1K8ttl1+C0dZiwKNGRotaIKR2M0sBcUJXJZp6mbGWJWlxCqm9rk9CtHglTb1vDj4VzcrJKz1ybG6sqjSUp04+yKTWtvRWLS544rsIgJmzOuNtsLeT14U9qeOvFU5Onr+iTizj5Vh0cqeIjrTtv+a7+ohUqZ72iqdWpBb0Kk6a5ozcfsMJi52VZ6UETdm74Da9Dpd2iEkTbm74Da9Dpd2iS1nGyz+1Df3EHx/XYXFsf12Fxg7T1s7HYs8KqdFl3lMlMi3Yr8Kq9Gn3lMlIkjy2VfiXuXIAAyc4AAAAAAHEbJUcfY3PV+4ducbsiLH2P/ADfuFVZ2g2bmA+Ih18mcJoFVA2dAOBy3UPUolLIvgdv0Wl3aId0fsJiyR4JQ6LT7tESKBuVnaMN3gcrJf+9bev7GDRLZQx1cZsuBY4lGcddEt3C2+yko69uspaPPOlq9JDbRKmY1+qtqqbe7oPa3x6G/B82Gr+E4jOzJDtriaSwpVG6lJ8Gi3rj1N4c2HGbdR3ipo5GTX0Varh3rvddXlZnPtFrRmaLGipSO0YmimBkaKNE1IyYiY8yaDp2FunqbjKp1TnKa8zRFuRMlyurinRjjhJ4ykvgU1vz6l52uMlTOa9jZ2U3DCLVNUKEVwSa0Y4cyxf8ACXU3rZxsrSz+joR0tu/cubIgylUU61Wot6VWpUXNKTa9JrlzBi52M1JWRaibs3fAbXodLu0Qkibc3fAbXodLu0TjrONlr9qG98iD4lxbH9dhcYOzLWzstivwqr0afeUyUiLdivwqr0afeUyUiaPLZV+Ie5cgADJzgAAAAAAcjn9HFW/PV+4dccrnxHHaP5n3DXxbtRk93NG5gPiI9fJnGqBc4GwoBwODnnpVIkLJa/0lHo1Pu0RWoEq5NX+mo9Hp/wDoiNXS9B08XLNVPd4HLya7Trb1/Y03AtcDadMxygaqmddSNjIOVJWlZVFjKD3FSC+FDk5Vvr/JIWULO3v6CWKcZLTp1I65Qlxr0NEYyib+RctVrSWMd1Tk8Z0pPcy5VxPlNujXUVmy1GhjMG6rVWk7TXHz4WNXLOQbi1k1UjjTx3NWKbhLr4HyM8hxJbyfnLaV1ouShJrB06zUceRY6mX3GbVhV1uhBY68aelST+g0X9DfTB3RVHKsqf6cRBp/j59T7nYh9xNzJeR69zPRo03JY4Sm9UIcspcHp5CUqGa1hB4q3i389zqLsk2hfZesrSOg5wTisFRoJSkuTRjqXXgSVG2mTsZllbP/AE0IOT/Pgr8yzN/IdGwpNuSc2tKtWlhFYLXgsd6KOAzyy67urhDFW9LGME9Wk+GbXLwcnOzLnHnNWu9wveqCeKgni5cTm+Hm3uffOecRKotUdRdgsHOM3Xru83w8+CX51YdEtwMzRa0RTOmY8CbM3fAbXodHu0QtgTTm/wCA23RKXdoupu7ONlr9qG/uIPj+uwqP15gwjsy1s7LYr8Kq9Gn3lMlIi3Yr8Kq9Gn3lMlIsR5bKvxD3LkAAZOcAAAAAADnM8I47T/M+6dGeFnPDHa/4/umpj3bDz6uaNnCO1aL38mcrtYdM3dqKOkebzjudIddk3Xb0kvkYL+nAj90zuM36uNLR4YSa6m8V6cOo53LNm6dWWrcybnDmfB1PUdbFvPo0qi1Wt2271Y0MHPMrVIvW3yv4niypmCdM9CUDDOBoxkdaMjzpQMUoG/OBglAtjItUjUlArTuKkNUJ1IfuTlD0MyygWOBapll76GWV7qtNYTqVZrinUnJedmtoGw4FjiWKRKOjQjXcS1xM7iWOJYpGTC0WuJmaLGixSMmHAmfIe4sbfHVo2dJvk96TZFGScnzuK8KEd+csJNfBj8KXUsST86bqNvZVdHc40nQppb6clorDmWL6jZpPQ5HGys8+VKjHW35L1+CGsC1mWSLJIzFnabuzsNivwqr0afeUyUiLti3wqp0WXeUyUS2J5bKvxL3LkAASOcAAAAAADysuQx2v+L7D1TRynDFRfFiu3/4aeUPhqnVwaZbRdppnhOkWukbzgWuB5TOOipmvY3DpVMfgvVNca4+dHt3tpC4gtfzoTWvD/B4lSBfZ3k6T1bqD34ve50dPBYyMIulVV4Ph5cbldWm5tThokvXr8HnX2T6lN4Sjq4JrXF9ZoygdvRylRmsHJRfDGerz7xc7W3eva6T5dGDNv2CE9NGomu3l3q5KOPlDRUjp9bSP5wMUoEiewLf5Kl9CJT2ttvkaP0Iklk6p9y4lqypBfSyNZQMcoEne11r8jR+hAp7XWnyNDycCSyfP7uBNZWpr6XwIulExyiSp7VWfyFDycCvtVafIW/kqfqJrAzXzXEn73p/a+BEziWSgS17U2fyFv5On6h7UWXi9v5Kn6iSwc181xM++Kf2vgRC4mzk/Jla4loUqcpPHByWqMf3pbyJUeS7GOvaLZYcLpU9XmMF3l+yoRw2yDw1KnRwm+bCOpdeBNYfN/wBpWMPK0p6KNNt9vBeRgzbyDTsoOTalVkvfKnwYrf0Y4/B5eHsS4vPTLquqihTeNCk2ovgnPedTm4FyY8Zlzhzoq3KdKCdKg9+Ke7mvnvi5F5zm2hOsrZsNRdg8HNVHXru83w7tWhJat5ruJjlE2WjHJGIzOodVsXr/AFVTosu8pkoEcbF1ButXq8EaShjyznj9wkc26f8AqeXyq/8AJluXIAAmc4AAAAAAGK4p6UWuwygjOCnFxlqegJ2PEZTA37u2x3Ud/hXHymiePxOGnh55kup7fXz2dhuwmpK6ME4mGUDakixxKUy+LNKcDBOJvzga04k0XwmaU4mvOJuzia84k42NmMmas4owyibU4mCcS1WNiMjWlHkMTjyGzJGKSLFbYXKTNaUTHKJsSRjki1WLE2a0oljRsSRiaLYsndsxtGNoytGOSLYyMmNmKZmkdfmfmq5Sjc3EcKcWpUqclhKcuCUlwR5OHm39inFydkU168KEM+f/AL+F60HQ5lZLdvax01hUrNVpp78U0lGL5kl1tnRAHRSsrHj6tSVScpy1t3AAMlYAAAAAAAAAMFa3hLW1r4+EzghUpxqRzZq6/JlNrUefKwfBLzYFvtfLjX66j0gaLyXhvt4vxJ9NPaeVLJsuNdv+DFLJM3ww8/qPaBn3Xhtj7X4kliJo8CWRKj+FD+r1GKWb9R/Cp9svUdIDPu3D7H2ssWMqrZ2HLvNyr8al/V6jE82K/wAen2y/CdaDPu6hs4sn7fW2rsOOeatf49Ltl+EseaVf49Ltn+E7QGfYKGziyXvGvtXYcS80K/x6X0p/hLHmdcfHo/Sn+E7kGfYaOzizPvPEbV2I4N5l3Hx6P0qn4S15kXHylH6VT8J3wM+xUtnEl71xO1diI/eY1z8pR+lU/CXUcwqrfvlanFfMUqj8+B3wJLCU1t7Q8q4l/NLqXec/krNW0oNS0XVqLWp1UpKL44x3l6ToAC+MVFWSsaNSrOpLOm23+QACRWAAAAAAAAAAAAAAAAAAAAAAAAAAAAAAAAAAAAAAAAAAAAAAAAAAAAAAAAAAAAAAAAAAAAAAAAAAAAAAAAAAAAAAAAAAAAAAAAf/2Q==;" vertex="1" parent="A_bzhGqca7OsKrDOXUyh-1">
          <mxGeometry y="870" width="40" height="40" as="geometry" />
        </mxCell>
        <mxCell id="Uzhfiwogue9IJAyO5cRf-8" value="" style="shape=image;verticalLabelPosition=bottom;labelBackgroundColor=default;verticalAlign=top;aspect=fixed;imageAspect=0;image=data:image/png,iVBORw0KGgoAAAANSUhEUgAAAOEAAADhCAMAAAAJbSJIAAAAkFBMVEUZd/P///8UdfMAb/IAcfP3+/81hvQAbvKdvfgzhPQAbPK61Pu+0/sAc/Pe7P3z+P7u9f4qgPTP4Pzo8f52qPchfPNypffY5v3K3fxWlfWKs/jf6v2hw/pjnPYwgvRtoveBrveuyvo+i/W1zvpYlvWTuvmoyPpHj/XD2PuRuPiewvmevPjZ6f2GsPi00ftKkvYgKPXJAAALgElEQVR4nN3dC3OiOhQA4JAE0bQUFFHroz5r7bZb//+/u6BWQV5JTg5x75md2Xt3pujXhLwfxEGP4PuwnU9Hi+Om04/T6Hc2x8VoOt8evgP8jyeIz3ZnP+/LjS+Exzn3aRokjeQvSv3k3zwh/M3y/WfmIn4LJGEw266ORLAURuoipTJBjqv1DCk9EYTubL7seYw32PJOzrzeco6RmKaF4WHVSbOkNC7DTFKzM3yODH8jo8Jwu4iTtNPQXZWcxbu1UaQ5ofu8IMwH6K5KRo9bc9nVlPB7yI3wzkbK+Ghs6JsZEQb7jQBlzhKkLzpzI6WrAWE0TfKVUd4Fyfjq5QGE4xE3nHwZI+fLgWXhYAcrOxuNPttNLArHC26sdKkMn72C0hEgnLXhOxt3gIJVW+iuWvKdjUPtclVXuPdR379CcP6nVeGg47XqS4J6Pb0iR0forkTbvpNRaGVVDeHhjVnwpcHjpxaEwaj1DHoLypYhtnDyxq350uD9A65w2m4JWhKUrRCFYc9uAp6Dd5R6yCrCifUEPAflKjlVQdj1bNOu4b0jCIOlxTK0EGwhXTXKCqONrUqwPPhG9mWUFI777TWz5cKPJfsbcsKD1gAoblAu18CREq6FbU5piL0p4dxKQ7s5qOiaET5QLXEfMrVGs/D9sQrRfHifcOHn46ZgGt4UKuw+cgqm0ZhRG4TzR2rIlIfXUNzUCx+0mshHQ6VRKzw8aDWRDypqq/464fjRWmpVwesacDXCKP4XUjANGtc0w6uFweZfScKkGb6p7kxVC5ePXk9kgy/UhS03ZW7rifSCVVaLVcJJS00ZyhkTQpyqXT9dJJX8N2OcK3u9qrGbCmHYxqCaz4XYrOZPg+i28iJ8GU9+9l+rRYemVoWVObyitKkQ9tCLUc7IYv1d8Xs/RzTZfi43RPKr0J6KcIqchNSLh9IzSWvJEoH9lRdOcIE+P24VZpGeZcs8VvoqlgmDPuriA09x7YG0kPbLpm3KhCPEJKTeRnWiU1pI+FJO+IxYUVA2V/SpCAkraYMXhZh5lG80FjkpCGlcfL+LwhVaHqXeUN2nJCS8+AkF4QCv08vVc6iqkIjCW14Q4tX1/o8WUE1I35qEc6xiRnYQHigk3v26mzuhizYJKraaQEUh5XeFzZ0QrZiRGoA3ISwUNnnhN8pSWFJRF+MICcuP2uSFO6SBC/oGWJmuKvR31cIBVh71ICtEVYWE5T4tJ8RKQtY4uWBUmE/ErBCr00TfQIvulYWEZ6v9rBAtCdcQoIYwl4gZ4QBpdI12QEANYe5NzAiXSEnI160L/UzldBNGWM2ZGAbUERJ266XdhH+RyhmusELLmJDfFjBehQHWkhkG3WunI8y0Tq/COVY58wEEagkzfdGrsIPVIl1bEd7Gh3+FY6yuvVBemG1ESMRvhfErHGG1uYGVobbQH+WFaD1frt4kDaOXXOiVEJS7OeEWa7bQUxq7GHR3ferfhebv3tvmhDu0wQv51zCc+oIDJ0ozQV+zwtDUYwsfUxj6qgp36pl9UyiNMkLZCSzl8Kvn1/Px3TP+FS5dmrMQLZPKFjQDhJLukk1Pwig2/vhLcKllvM5MdqJXLaKr8IC27qJy/UAu3A0KkD1fhUO0yRghtaD+HefzzyOnqdDFapMmaShTWYRIH0477kU4xptPozJCtFW6p7HhVPgHb/lTyYxlMT6wshDrXoQLvCV6MuOIM7QsdKqNE2HwhvYa0p7EaD5ac4OQfnASzvBWJpzf9YbAGiBKQsxOQsTfoZQQ8SVh+5MQb2mCnPCIuPZjeBKiFWVyQqQGzfnzP1Khi9VzIpJCvPYGob6bCL8R91TYFqatRoI3gEEeQMi2ifATc52ebSH/TIRYU05pWBcmrRqCNtidhnUh7SRCzIMSrAsJd0iIuT3NvlCEBG3CIo0HEI4J3hgNeQQheyJrzHX5DyBck+7/W8i/CGLv7BGE/oosUfdWWBfSJUEb0D89375wRxB7hw8h/CAdxMc/gDDx4Q20kUcQ0j5Bm3Y6Pd+6ENf3EEITkd5yUBFMYn23+8aqH8DxjmFWAI66lfE1lxDOv6ofkIT9JC7fuWkuUKszOaHubh+5CPvQLwgua5CFL8B2cwyvD5GFwKMPkvoQ3KZBFkKnbzvwdimyEDhvRDfwvgWyEPj9kr4FuH+IK4S2eJL+IbiPjysMgQvskz4+eJwGVwgd7ORf8LE2XCF0ZoytyRN0vBRXCF0Qxp7gY964QugKezGGz1vgCqGT/CKEzz3hCqELT5mB+UNUYQTMYaf5Q+iCHVThAbhe6zQHDJ3HRxXugSU9nxpYi4EqhLa42DoRQqsLVOErtCgdG1gThSoEjkCc10RBh3owhS60KN2cVu4BV+pjCsHt7vPaRGB5hSn8gRal5/WlM9gvClP4BSxKL2uEA9iIJKYQuiLtss4b2KrBFAKP5fpdqw/c0YEpBPYKrvstxo8qfIE2t373zMDGsxCFE5jwvNsDvncNUQjcJ3HesH4S6u14/xX+uDUh4aj+WWhb5Lb/MAI9qN/p9ar+HCVmSI9VP96BHgp/20MKbMLTyvAl9j25Hb/y50G+7D5gtI1BVlcqsH1GGCHtKrEpzO/Hx9p7ZFV4dLJCpG0lNoW/Z6hdhAHOshWLwus5Srjn01gUXg80+xXiHB9sUVg4Ywjn/GB7wtuhKrezvjDWe9sT3q7xvgpDjLLGmpCy61EHtzP3MLYDWxOWnbnnzBCqRGtCNisRYmxEtCXMHm2Ee36pLSHLHEKbPYMWOg1SDEvC32O+CkLgsEjZR9kR5hb15s6CfjX9JtoR5pIwLzSeiHaELHcDRP5MdtOJaEXo55LwTggbGy6GFWHtufqmT/2yIeSj/PPvhIHZyxEsCCmrv9/C8LlbFoTs/iKNwj0zRveytS+k/fvnF4QTk5399oWisIOneN+TycKmdeF9MVMqDAxeIdu2kMbFM/5K7l0zOHbatpCVXEhUdnfe0lg+bVlYeqNsmTA0lk/bFZbl0Yo7LI2dBtKuUP4OS8dZGSK2KmSr0udX3CVrqN5vU1is62uFkZlEbFFIPbX7gJ2DkaZNi8LK4+0r7+X+NJGK7QnZZ9Xzq+9WXxioFVsT6tyt7oQd+JBGW0LaqT6RuVroRPCKvyUhjWfVz68RGjgFuyUhq7uar07oPEEL1HaEovYK11qhMwdvO2pBKO7vVlUROl3gfv8WhF7DnWANQucTRGxB6DXdoNEkdKYQIr7Q+9v0/EahMwU0btCFzUAJISSjYgsbs6ic0Olql6jIQlHZGFUU6lcauMKGakJF6DxpLrbBFFIud1e7nNAZxFrNcEQhjSVvUZYUOi8bnUYqnpB3XhqfrCZ0woXOZZlYQraTvs9NWqhVayAJqVC4c1BB6ByUp09xhFTpykEVoRO9KeZUFCHvK91OqyRMh4qVvg6CkLKh2ldWFDqHvkqZal7IY9WNZKpCJ1wqJKNpIWUL5fuTlYWOs42lk9GwkMdr9a+rIXSCoZD8UkaFVCx17hbWETrOpC+XVQ0KKevrHSOqJ0zX3chkVXNC3jQcUxm6QicYsebGuCkhZVoZ9BTaQscZvzYazQgpf5W6CrM8AMLkdXxteB1NCCn7AJ3jCxKejHXpCBf67Ag8pxgoTPrGS1Y9AAAVcraYND6gIcDCpHO8qjx0GyZk3rBmTkk2DAiTltyfN1F6Cqe+kPoi7mqXn9kwIkxiMEoya+GragopZRyePS9hSphUkOsjvS9atYSU+R97mTto5cKcMIlo/Upy5Y6ykPqMHPeyg0xSYVSYRPQ87LFrUqoJKffelj/K3aOGMC1Mwh2/L2LB/eS1lBXSJO1EvHgfm8uc10AQphHM9sMNF57M7Q89Ifhm9AdDlwaS8BTBeP8eRfVGN4re91i4U2AKLxFGURBELy9ReDmuxg3C9H+Tf4yM1Hj18R+B8bxnnVxd3wAAAABJRU5ErkJggg==;" vertex="1" parent="A_bzhGqca7OsKrDOXUyh-1">
          <mxGeometry x="5" y="910" width="30" height="30" as="geometry" />
        </mxCell>
        <mxCell id="Uzhfiwogue9IJAyO5cRf-11" value="" style="shape=image;verticalLabelPosition=bottom;labelBackgroundColor=default;verticalAlign=top;aspect=fixed;imageAspect=0;image=data:image/png,iVBORw0KGgoAAAANSUhEUgAAAPgAAADMCAMAAABp5J6CAAAAclBMVEUdm/D///8Alu8Al+8AlO8VmfD4/P/7/v/t9/7y+f7i8v2z2vnK5fui0fjc7/38///U6/xWsPOVy/fA4PpHqvIinfA3pfGIxfa22/ltufR2vfXQ6fxgtPMtofF+wPVDqfKOyPap1ficzvfE4/tstfNfsfPWKkv6AAALw0lEQVR4nOWd6YKqNhiGIQsCAoICioqKztz/LRZ0VMISErIAp++fttZBH7N9WxLD/J/KmPoLMMk+7daF7/vFehfach45d3DLu2cpQAi8hRC+Hn3PEn3wnMFX4TaGAEKjKQgRjO7BSuTh8wUPbimCuAX9FoYo3brjHz9TcGsdAdAL/Wl58Lvj7PPr9281S3DHT0F/WxPtDtKCA/0Upe93zxDc8vPhxv6qRGcc7EEG0P39H/MD3115sJ/oscfwXPeIoZF8ZoW5gdsZYyevC4Pj0OoeHI3y94Q/nxc6wIWXSAGtE97mfgnmO9pjvTN+LhDw2zXa4F4sn4dRq+M47Epg3/dUp4jByxbA0ffVNvgVXJRQDctO27YKB3nc2d3DS/IZPODxfb0FvkMG8NXBUeRh/tFdF0zC5iPdewq/RlC9wdvgaTVXHJQSduswvpt/0ImB7vpX0tyFp9r/bYJ7qPpp8MnULR+JtXclDNZ/T9s8bjloGLwgq39eEzx6vTkJ9OB+VIi395t85fkRahu82HDqH9gAd9Hfu3JJbi+j5HBXfTVLUbOpX/r0hpca4Nv3F4CpY+rTjuKG8aL3vA7P5Ec2wPPvG2N95KEsaoqShl1Ggoe1HgdjXSacnUtr716B5nRNgm/rQw1Gesg3Z0kDnMbdMk1I8JR4tybyrQbutjFKgNuNLqelt59E7FRG7nP7YwnwXfO31zC3W1flA7yz5xLg+1ang6nq9Vx9Rwdt7mBLgsftHx8rtuFceSt4H/e5wW3tfkFIgG+Sjr/DCUtcZ7Qy1SMcHEnucJ9D5JNd3e3+U0zaelJ1QmqxMdjWPy4o3VRQjnmTBPe6f30M7qYqRWo7OoY1B/t0S19uamI3wFuT+lvgqIg7VNvgIH0HVd11ZvzFnwzwHLt18HvveAOKDPez0hEObtVnrE7+2ah5bOhlxNXB26vZRzBREZqwlTb41XMP95eXWhtQ8C8cUQc/0n5/UMgHvylt8ASgdqr1Y4zWwelLC8qk26+9zrMy4bwraTiwpsK0FcUUk+q1rEufEcsBXq5rhVTwi3r3pAFQC8PygJfd/SzTdNfd04mGY57cXoIJNUfFpVC9H06KiEYwLme1vx5MTLLK19zTSeuVzYAh/j6XlGdRbK62vjfBTYCzJnFgJlB081WiFRyR3KSTwjroYCIhrRho7emo6WjVwQPmx2CYCnvpvS6RAmFUND++Dm5xdD4MM8FJjm1GkSPQXouGQk/9gvAmVFrIsHhKUmfylwDnNKWgUQiAa5vUQd41FxPgvLl5DJLxS1s+/HwpAlFnxyTAXe5GwCAdi94V2VSgvqIgMoU0phVK9M0Ibp6ZdLxwr4lNgjMZrS2B1OePTNk6wHHca2qR4MwmTEMgufEaczrAcd7fII3CgLHfBkOYeVyrm63DKWUH349fXCG4+hw2jQ5wnPR/oQZ4IBINKle3zGMd7Y6Orp70D8BmuZdY0hZDkO9PbEFJDcsZD7h4fSEA6Y2FXYMBwwMuxUuGMD0+hvo8l2MwTlzgkkrtIEx+C2pqXYOTwgUub+xhYORZP7wGt5QPfC0zzA8BTs53r2tV0RCI4FjOKsmuximNG5ict7uANOk1hJ44wZVkdsqFDoAk2hffXbEaFnJ2y+2pi6pOiCt8hBBOo/Nlq6GQM+9fVrvALfVfqez+I7ZZcSvtdx86952ddCd3VCnt5e7ZcKehvFSHMGUnWc9OQw0FxRqEO2pYB8Cdq+7ctQpBSrVW397SQMOcq1z9uw8pm2pPenN6SgQpKb4auEXO/d7UX1tcHZmjLvAgJt/nLb7NIaU4rw5ugJgIkYeLJ6f4xTVwN8EY5H7Nk3PTRa9qNB+lDv6KdAPjfPi83zpPUIomT3k/dx3ceUXBymbHsX/6m+nuCyanGW7EcvbdfFW50NdL8QissrtP+NXFRLNfCHAy/Pf0oBFK0sXOcNQDAAYL/AS38U8p+OjFHlPntiDRorx18MeiF6+WcHMDcS94zy6kxYoShmg4KbrKUvSIOqmT4Mp3v2kVvbqeAJd1UsM81Nor3w+ut7xUtTA1ZUvbOL9wUee25lEJ/1CTQ/qRVSR48A8N8oFzmxoxN/Xb97UJ0AvQGuD/zryOEyp3K8qqfAO/LtHNlza42u2eGjV0NFsT3FlwxIUQGig2bCUUBGob56ShId4GdxYceagJUrJH3eCm/09M7Ghol1RH7my5Qbaa4AB3F/jYovU5CWZtrkFwdcU/+jR8zmgXuLP8zg4Gq8c78+Ph0u034uhZDvDFm+xg+JSmnoqIhQ/z4Z7eB776XbIBVztGnRfcdOIFk7OcHd1b/CN25vekwgbDzpD+qwSWSz7kig+Al8v5Qmc4xHIgF+3yiE20TPIry5ZH+q0ZFx211bLFduDgwHUhxfLIscG00XPonpRgcQOdaWpjuCBms1+Y4U7PFbKDly5LvKRGxzHb+QVMVwKtF9TfGfwTdvDnhVQL6fAp4wGLrJdAPe/VWQA78+G57LdfrbxjMn92Wt3uSPBSziFLaPcMTq/BcPo48FJWeM80HV0zQrTtwzzgTiuQsQket3hqvH6xNzgdPATpee8fdg/Pe+wOxS27JpjhcsnJhA3202joXT1/ljADWKn658zzahwNPgCu+yBNMTG6Jyzgzoz7dVvwxs49NKsvqsiTWq3MCS50EpBm8d1IOLSOaz41VkS0PUf84IpvOZAoxHcq9KDlpvaaA3liyBPygbsLmdgHChn5wc3bIshpW8VHgms4I0SCEt7DcRm8syVsTuKc2djAR57dqVPDtT6jwK25p4y5jHQO8NlvSGsfIi4JXOtZ6Pxq3sUqEdz0Z2zAjeno7DG3Ga/maNRFdMzBxtnWQY2Y0bnA50pOO19ZDnjZ22dowmE48hYLnrj6HCvZR9+3yJVQ2Om/oGxAo1YyfnDTvc6r0XE++s4SzhTSaj+ngd55D4ga8NJXm1GRgMjFc9zgpnNr3ZA4kTpuFVcJbppBBuaADjmjbOLgpnn6nR4dU06bVQZumuFx4rQphmKXro0FN037nqIJm52pUlcJeKnwVl2AOw236KWSQuCl7PUxR9VVuBjrNOvGxFzkgldahYf75Ryn+g4Oal3UNw34n2xtxTGAJxHeI3nga23GrJDh8pYscOu4LG5Z4J6+nTtyuOWAWzd95Y6SuKWAexodNu6saJ/EwW19o9vAjQuGBSQKvikSfaYbhoUM5qcEwR9aY1FQ0j3YlcRs9bPOQBQ2BP0SQgLgQaY1FAM7L5wdrdHgQYa1+mUgEoo7tDQS3DtrdkeRpOX7ozHgmyLVHWQWd0PFwYM91h10gkkom5sX3PFTpD2lAKJxCVFp4HYRIf0RRonW2hjwVXiP9Le1UV2bLnP15gO3guKYT7TfDB7lrmKs4Ja922b5VKFUQ+RG+0Fw2+74TS3HDnb3yzmttiBNA11xZ6OzwAzgQZZGP8f97X73i8K/b7f748/vNTeeMePJmI3KRhWNndPBTfNQDmAI4HeLGZ7B/jIMLgoWMRLcdPbG5DnAhkCsZjInwU3TzeZU6VCuYQVv/flI8NLtmM9JEBDvlfZyEtzcHOZR5AFBJtXxHgSvvK7pT4LA6CzfIRkCLw1TP5m01TGK9GB3WG7r6dAhihRP5TTwcllPp7BQMUAZ9YZ69eCmeTrrLnDBwNirM0+Zwct1fZ/os1cxBNdCkRPWq17vbHWI9JhzGCRHfUP7I5pb6m5TqLjLY2hEa719/E8D/vhpnysb7rgc2PFd54RW12AExvL2KVRwHEjZl6LJqE3G0FN4ixOJSxwuZ7P8Z63DMO0Xa7DR3V2qaIxww5f9GyS/N2+ScV0XR3jZcteXGI4PRVUNjfLf22Ny6EqcCYUq+PiTAs62L5FL5iS6FIF6f5NRY3Jnlu35l98coNcP0PsT4OeNt+Xb8ui43bkO22GKmjQ+P25ZwaO4ZdE1AQhVv8ErZPf3L9VLSRpl+/v6ZFuzQn5JQtXTauW4obc7rNdF4ZcqisPucXKdlerokZAk1rIuS/9b8P8ABQeukkyIrV0AAAAASUVORK5CYII=;" vertex="1" parent="A_bzhGqca7OsKrDOXUyh-1">
          <mxGeometry x="1.7699999999999998" y="950" width="36.47" height="30" as="geometry" />
        </mxCell>
        <mxCell id="Uzhfiwogue9IJAyO5cRf-14" value="" style="shape=image;verticalLabelPosition=bottom;labelBackgroundColor=default;verticalAlign=top;aspect=fixed;imageAspect=0;image=data:image/jpeg,/9j/4AAQSkZJRgABAQAAAQABAAD/2wCEAAkGBw8TEBASEg4QEBISDxYRFxUVEg8PEhAVFREWFhURFRcYICgiGBolGxUVITEhJSkrLi4uFyAzODMuNygtLi0BCgoKDg0OGxAQGy0lICYtNy03MDI1LS0wNS8tNzctLTUtLS0tLS8vMi0tLS0tLTUtLTUvKy0tLysvMC0rLS0vLf/AABEIAL8BBwMBIgACEQEDEQH/xAAbAAEAAgMBAQAAAAAAAAAAAAAABAUBAgcGA//EAEQQAAIBAgIGBgYHBgQHAAAAAAABAgMRBAUGITFBUWESNFJxkbMVNXN0gcEiMkJicqGxEyOD4fDxQ4KS0SRTY6KywtL/xAAaAQEAAgMBAAAAAAAAAAAAAAAABAUCAwYB/8QAMxEAAgECAwUHBAIBBQAAAAAAAAECAwQRIXEFIjEyURIzQXKxwdGBkaHwE2FCFCOS4fH/2gAMAwEAAhEDEQA/AOsaQ55SwlLpz+lKTtCCdnN9+6K3vdzbSfL800kxdeT6VeUY7oU3KlBLhZa5f5mz76bZi62MrK+qk3RiuCg7S8ZdLX3cCiK6vWcpYJ5HU7PsKdOmpzWMmsc88MfDXr4llk2dV8NPpU5Xi3eUZXcJ98dz5rWdIyHSHD4pWi+hVSu6cmulzcX9pc18UjkptCTTTTcWndNNpp8U1sZjSryhobrvZ9K4WPCXVe/X1/s7hYWPDaPabNWp4rWtiqpa17RL/wAl4bz29GpGUVKMlKMldNNNNcU1tJ8KkZrGJzFza1beXZqL6+D0ZtYWMmDYRxYWAAFhYAAWFgABYWAAFhYAAWFgABYWAAFhYAAWFgABYWMms5JJttJJXbbSSS2tvcAZsVWeZ9h8LH6b6U2rxpxt05c32Vzfwuee0i02SvTw2t7HVa1L2ae3verk9p4arUlKTlKTcpO7k25OT4tvaRKtyllDP0Lmz2TKe/WyXTx+vT1LLO8+r4mV5y6ME7xpxbjCPN8XzfwsYyvSDF0GnCtNpfYm5VKb5dFvV8LMqwQ+3LHHHMv/APT0ux2OysOmC/8Afzj/AGdi0a0hp4um2l0KkLKcL9Jq+yS4xdnr5A5Xk2Zzw9WNWGuycWt0k1sfxs/gCbTuYuO9xKC52TVVR/wrd/cjGd9ZxHt6vmSIRLzjrOI94q+ZIiEGXFnQ0XjBaAAGJsBbZFpDXwsvovpU27unJtwfFrg+a+NypB6m08UYzpxqR7M1ijr+SZ7QxUb05Wml9KnKynHnzXNfkWhxChVlGSlGTjKLupJtNPimj3Wj2mydqeJtF7FVStF/iS+r3rV3E+lcp5Ty9DnLzZMob9HNdPFadfU9qYEZJpNNNNXTWtNcUzJKKYwAAAAAAAAAAAAAAAAAAAZAMGTDZ5DSHTWEL08PapPY6n1qcfw9t89neYTqRgsZG+3t6leXZprH0Wpf5znNDDR6VWX0mvowVnOfcuHN6jm2f6SV8U7N9Cle6hF6uTk/tP8ALgirxFec5SnOcpSk7uUnds+RX1a8p5cF+8TprPZtO33nnLr00Xvx+mQABoLEAAAGTD/uZNsaTaxIdW8jTl2cMSTnj/4rFe81fNkRCXn3WsT7xV82RBjI8xWODPey+ypR44H0TBo1vW39TaE78meSjhmjbTqqWTyZkAGBuAAALzINJa+FaV/2lK+uEnqXOD+y/wAuR0fJ84oYmHSpT1pfSg7KcO9fNajjh9cNiJ05qdOcoyjslF2a/lyN9KvKGXFFdebNp3G8spdeuq9+P0O3GDyWj2mkJ2p4i1OexT2U5/i7D/Lu2HriwhOM1jE5ivb1KEuzUWHo9GYBkwZmkAAAAAAAAAAyZAMEHNs1oYeHTqTtfZFa5zfCK39+xbyi0h0yp0r06HRq1Nje2nB/D675LVz3HPsZi6lWbqVJynJ7W9vcuC5LURqtyo5RzZbWeyp1d+rux/L+Pr9uDLjSHSmviLxX7qj2U7OXOo/td2zv2lAAQJScnizpaVKFKPYgsEAAYmYAM/1Y9Sx4HkpKKxlwMANnzlM3KCjmyuqXE6m7DJfn/r9zN3IEdzB7/KYK1yLLP+t4n3ir5siCTs/63iveKvmyIBofEsYcq09jZMnZLBSxNFcZ28bleWmi/XKHtY/MzptqS1NF1BOlN/0/Qtc1yHW3BdF8NkX3cP07jz9SDi2mmmtqepo6vicIpLYeezXJ4y1SXdJamv64EyrbKWccvQo7Pa06eEaua6+K+VrmeGBMx+W1KT2XjxWz48GQyDKLi8GdJTqwqR7UHigADEzB6DR7Sqth7QlerR7LeuK/6b3d2zu2nnwZRk4vFGurShVj2JrFHZsqzOjiIdOlNSW9bJQfCS3fpwJpxPBY2pSmqlKcoSW9cODWxrkzoWj2mNKtanX6NGrsUtlOb5N/VfJ+O4n0rlSylkzm7zZU6W9T3o/lfK/tfhHqQbGCSVJgAyAYMmTzGkOl1KhenStWrLVt/dwf3mtr+6vi0YzmoLGRto0alaXYprF/vEvMxzCjQh06s1COxb3J9mK2tnOtItLKuIvCF6NF6uin9Oa++1u+6tXG5SZhj6tabqVZubfHZFdmK2JckRivq3Ep5LJHS2ey6dHCc96X4Wny/sAARy0AAABtTg20km29SS1tkrAZbUqvUrR3t6ku7nyPU5flsKa+irt7ZP6z/wBlyN9KhKpnwRX3m0advu8ZdPl+3ErMsyJapVNb7G5fie/u2d5WaQaq8lsso8vsRPeYfC3PCaZLo42quEaflwJNWMaUN0qLWrUu7huo/wDH6LNcConM+TkYbMEKUsS+hTUVkbA1BibC3z/reK94q+bIgE/P+t4r3ir5siAHxPYcq09gWmi/XcN7WPzKstNF+u4b2sfmZQ51qYXHcz8r9GdYsfKtQTVmj7AtziCgx2AtfVdP4/BnlszyO15U/wDT/wDL+R0aUEyrxmB3rZ+hhOnGawkb7e5qUJdqm/h6o5hOLTaad1tT1NGp7PM8qhU2q0t0lt/mjy2NwFSk/pK63SWx/wCz5FfVoShn4HT2e0adxu8JdPjrpxIoANBYAAA9PTaO6XVsPaFS9aitW395TX3G9q+6/g0dEy7MKNeCqUpqceW2L7MltT5M4qSsuzGtQmqlKbi9+9SXZa2NEilcOGTzRVXmy6dbehuy/D1+V9jtJHx2NpUYOpVmoQW973wS2t8keShp9H9jd0X+32dFP90/v32pfd289543M80rYifTqzbe5bIwXBLcv6dyTO5ilu5lXb7Iqzl/u7qX3enh9WXukemNStenR6VGlsbvapNc2ti5Lx3HlTIIEpuTxZ0dGhTox7NNYL949f3wyAAMTaACVgcBUquyWpbZPVGP8+R6k28EYznGEXKTwS8WRopt2Sbb1WWtvkX2W5FslU/0L/2fyRaZdlUKWxdKW+T29y4It8PhWydStks5/Y5282vKe5RyXXxenT10I9DD6kkkktSSVku4s8NgyTh8KkTIxsSylPnSopHK9POv1vw0/IidaOS6eesK/dT8mmRrvkWpa7H7+Xlfqjz4AK46QAAAt8/63iveKvmyIBPz/reK94q+bIgHr4nsOVaewLTRfruG9rH5lWWmi/XcN7WPzMoc61MLjuZ+V+jOsgAtziAYaMgAg4rBp60vh/sVGKwiaaaTT2pq6Z6Uj4jDJ61t/UA55mWSNXlDWuzvX4Xv7ikkvh8jpVfDcikzPKYVNdujLtL58SJVtk84fYu7Pa8o7lfNdfH69fXU8eCRjMFOm7NdzWz4MjkFpp4M6GE4zipReKfiAAeGQAAAAAAMpH3weCqVJWhG/F7IrvZ6jLcohTs/rz7TWz8K3G6lRlU4cCFd39K3WDzl0+en7gmVeW5E5WlVul2dkvjw/XuPSYbDJJRjFJLYkrJEmhhWy0w+ESLCnSjBZHL3N3VuJYzf08F+9WRcNgyypUUj6xhY2NhGCQAABybTz1hX7qfkwOsnJNO/WGI7qfkwIt3yLUttjd/Ly+8SgABXnRgAAFvn/W8V7xV82RAJ+f8AW8V7xV82RAPXxPYcq09gWmi/XcN7WPzKstNF+u4b2sfmZQ51qYXHcz8r9GdZABbnEAAAAAAHyrUVLvK6tQ3NFsaVKaa1/wBgDzeLwSkmnFNPc9Z5jMsklG8qd2uztl8OP6957ytRtqf9yHWw5rqUozWDJNtd1beWMHqvB/vVHN2jB63M8njO7X0Z8Vv/ABLeeZxWEnTdpRtwe1fBldUoyp8eB1Fpf0rhYLKXTx+nX9xSPgAfbDYWdSXRhHX+S533GtLF4ImSkoptvBI+KRcZbkkp2lUvCPDZJ/y/Ms8syiFO0n9OfHcvwr5l1Qw7ZMpWvjP7fJQXm129yh/y+Pn7YZMj4TCqKUYxUUtyLXDYMkYbCWJ8IJE0oW8Xiz5UaCR90jIAAAAAAAByTTv1hiO6n5EDrZyTTr1hiP4fkQIt3yLUttjd/Ly+8SgABXnRgAAFvn/W8V7xV82RAJ+f9bxXvFXzZEA9fE9hyrT2BaaL9dw3tY/Mqy00X67hvax+ZlDnWphcdzPyv0Z1kAFucQAAAAAAAAAazimrMhVqLXNcSeYaAKipRTK7G4GMk1KKaZe1qDWzWv0MRwy3g9TaeKPDPR1dP67VP/u7uHxLjCYOMUowior9eb4svKuEuZo4SxhCnGHKjfWu61ZJVJY4fv3IuGwhaUKCRvCCR9UZkczFG5qjYAAAAAAAAAAHI9OfWGI/h+RA64cj069Y4j+H5ECLd8q1+S22N38vL7xKEAFedGAAAW+f9bxXvFXzZEAn5/1vFe8VfNkQD18T2HKtPYFpov13De1j8yrLTRfruG9rH5mUOdamFx3M/K/RnWQAW5xAAAAAAAAAAMxjc2hT4n1SAMRgkfGrR3rwJAAIVjKR96tLej4gGTY1NgDZGxqjYAAAAAAAAAAHJNOvWOI/h+RA62cj059YYn+H5MCNd8i1+S22N38vL7xKEAFcdGAAAW+f9bxXvFXzZEAn5/1vFe8VfNkQD18T2HKtPYFpov13De1j8yrLTRfruG9rH5mUOdamFx3M/K/RnWQAW5xAAAAANoxbANUj6wp8TeMUjIAAAAAAANKlO/ebgAitGx9pxufJqwBlGxqjYAAAAAAAAAAHItOPWGJ76fkwOunItOPWGJ74eTAi3fItfkttjd/Ly+8SiABXnRgAAFvn/W8V7xV82RAJ2fdaxPvFXzZEE9fFntPkWi9AWmi/XcN7WPzKstNF+u4b2sfmZQ51qYXHcz8r9GdZABbnEAGUrn1hC3eAawp8T6gAAAAAAAAAAAAAAw1cyAD5ONjJ9DRoAwAAAAAAAAAci049YYnvh5MDrpyLTf1hiO+HkwIt3yrX2ZbbG7+Xl94lEACvOjAAAPWafZXKjjJyt9Cs3Ui913b9pHvUnfumjzZ3LPMopYmi6VRO1+lGSspU5rZOL3PW+Tu09TOXZ5odi8NeVo1qS/xIyjBpfehJ3T7rkqtQkm2uBWbP2hCcFTm8JLLXDh+DzxaaL9dw3tY/MqHUiWejOIisZh23/ix3PmaILeWpPryX8U8/8X6M66bQhfuPhDF097/Jm/pCl2n4MtziiUlYyRPSFLtPwY9IUu0/BgEsET0hS7T8GPSFLtPwYBLBE9IUu0/Bj0hS7T8GASwRPSFLtPwY9IUu0/BgEsET0hS7T8GPSFLtPwYBLBE9IUu0/Bj0hS7T8GASwRPSFLtPwY9IUu0/BgEsET0hS7T8GPSFLtPwYBJaNT4ekKXafgzDx1LtPwYBIBF9IUu0/Bj0hS7T8GASgRfSFLtPwY9IUu0/BgEo5Fpv6wxHfDyoHVPSFLtPwZybTTERePxDT1Nw3P8A5USLd8q1+S22O8K8vL7xKgwa/tUeiyHQ/F4q0oxjTpP7c5Rkv8sIu7fJ2XMgxhKWSRfVK1Omu1JpI+GimRvGYhU9ahGLnOS+wrNR+LlbVwT4A67kGRUcJS/Z01dt3nOVulUl2pW/JbEZLCnbxUd5ZnP3G06s6jdJ4RP/2Q==;" vertex="1" parent="A_bzhGqca7OsKrDOXUyh-1">
          <mxGeometry x="1.77" y="990" width="38.23" height="27.76" as="geometry" />
        </mxCell>
        <mxCell id="Uzhfiwogue9IJAyO5cRf-15" value="@jrm" style="text;strokeColor=none;align=center;fillColor=none;html=1;verticalAlign=middle;whiteSpace=wrap;rounded=0;" vertex="1" parent="A_bzhGqca7OsKrDOXUyh-1">
          <mxGeometry x="35" y="875" width="65" height="30" as="geometry" />
        </mxCell>
        <mxCell id="Uzhfiwogue9IJAyO5cRf-18" value="jrm@gmail.com" style="text;strokeColor=none;align=center;fillColor=none;html=1;verticalAlign=middle;whiteSpace=wrap;rounded=0;" vertex="1" parent="A_bzhGqca7OsKrDOXUyh-1">
          <mxGeometry x="35" y="987.76" width="115" height="30" as="geometry" />
        </mxCell>
        <mxCell id="Uzhfiwogue9IJAyO5cRf-17" value="jrm&amp;nbsp;" style="text;strokeColor=none;align=center;fillColor=none;html=1;verticalAlign=middle;whiteSpace=wrap;rounded=0;" vertex="1" parent="A_bzhGqca7OsKrDOXUyh-1">
          <mxGeometry x="35" y="950" width="60" height="30" as="geometry" />
        </mxCell>
        <mxCell id="Uzhfiwogue9IJAyO5cRf-16" value="jrm" style="text;strokeColor=none;align=center;fillColor=none;html=1;verticalAlign=middle;whiteSpace=wrap;rounded=0;" vertex="1" parent="A_bzhGqca7OsKrDOXUyh-1">
          <mxGeometry x="35.00000000000001" y="910" width="60" height="30" as="geometry" />
        </mxCell>
        <mxCell id="Uzhfiwogue9IJAyO5cRf-30" value="" style="strokeWidth=1;shadow=0;dashed=0;align=center;html=1;shape=mxgraph.mockup.containers.browserWindow;rSize=0;strokeColor=#666666;strokeColor2=#008cff;strokeColor3=#c4c4c4;mainText=,;recursiveResize=0;" vertex="1" parent="A_bzhGqca7OsKrDOXUyh-1">
          <mxGeometry x="5" y="1080" width="1480" height="960" as="geometry" />
        </mxCell>
        <mxCell id="Uzhfiwogue9IJAyO5cRf-31" value="Page 2" style="strokeWidth=1;shadow=0;dashed=0;align=center;html=1;shape=mxgraph.mockup.containers.anchor;fontSize=17;fontColor=#666666;align=left;whiteSpace=wrap;" vertex="1" parent="Uzhfiwogue9IJAyO5cRf-30">
          <mxGeometry x="60" y="12" width="110" height="26" as="geometry" />
        </mxCell>
        <mxCell id="Uzhfiwogue9IJAyO5cRf-32" value="https://www.draw.io" style="strokeWidth=1;shadow=0;dashed=0;align=center;html=1;shape=mxgraph.mockup.containers.anchor;rSize=0;fontSize=17;fontColor=#666666;align=left;" vertex="1" parent="Uzhfiwogue9IJAyO5cRf-30">
          <mxGeometry x="130" y="60" width="250" height="26" as="geometry" />
        </mxCell>
        <mxCell id="Uzhfiwogue9IJAyO5cRf-33" value="" style="rounded=0;whiteSpace=wrap;html=1;fillColor=#000033;strokeColor=#6c8ebf;" vertex="1" parent="Uzhfiwogue9IJAyO5cRf-30">
          <mxGeometry y="110" width="1480" height="60" as="geometry" />
        </mxCell>
        <mxCell id="Uzhfiwogue9IJAyO5cRf-34" value="" style="shape=image;verticalLabelPosition=bottom;labelBackgroundColor=default;verticalAlign=top;aspect=fixed;imageAspect=0;image=data:image/png,iVBORw0KGgoAAAANSUhEUgAAAIQAAACECAMAAABmmnOVAAAAYFBMVEUAAAD///89PT2YmJjBwcHs7OwgICAjIyP7+/sxMTHU1NTo6Oj19fXLy8v4+PgbGxuAgIBLS0tEREQLCwuOjo7b29tWVlYUFBStra1ycnJjY2OIiIinp6dbW1u4uLgpKSmGNJ26AAAE0UlEQVR4nO2Z6ZKzKhCGG9FERRR3ccv93+XXBjHGLM6JQ6ZOFe+P1Jg48EgvNC2AlZWVlZWVlZWVlZWVlZWVldX/R0lbpVlwSer8rwgc0dA0OCd/BoBquMDPS1tQSkV1/guENKIA0o2Ill82IvguwxAJqEpyk+9PnyWtvsdQez0IXwOwXrbD0ErRlLggXfIliIbBoBH4sP5l6Esypl+BIBK8maF7+PFEy1CYZ5B+ImYG+uz3fGi4NA0xhsAVg/fqloBywz7Km5q9MsZNtDfpG3nZBypBxG+fNhDiYhLCURCR8/5ORwzvbzgg3lxUcHg7EJhZpak06rqgsmW0b/W8yszscLTU0fGTQAyy2gRE6tf0TZp4xDiZoCDDRUGUP7u/NrGf8HF2CvLDGMwN+IVgUPwXeyiQzHnuHInzme96ElSm8KZxV4UFB0rWijjVYZzh5bOQDvD77BOIvtSTFXgV3iZ1NxBTWm3UAjgT82PWcNgLuF05UXpW+Yqd9iAICXMNQcJtMXq+/vNHENCE0KkZ+n0INJKGIOFmIGXKzyByUum5032Iq/86K6BFc9L7DGLKmum82CB3IbzTAjEt3aKRHIIAr4BGjdCBFKLcQDDRCSGorgLFDWIV1j05CFH5zmwHf9qv3Q2Etj3T398grhF1x/AxxBSmqUoWrH4NMRejbA0x73sdOQ6Ro0HE8pz8BUSgLqM7CH+qyFae9DkEjt9qz6L6sR4gMnXp3UGQKIN2dXkAAgQmwFAvcP8cYrZ7eQ9BvNZfXx6AgKaEi/K8eFCLsoUYYnXZbCA2OgIB4QiOmiYOrhQLhDdO4noWaQiiTpIaPIqxqszsTBQvkhUGhxmI0WOMRRj0UlGwDOP0BYRcQayS/PL3xxB8mUDnArTItp5QamAFsSo/wvPvQHgtUszhhhapnkGo3WKByDVFCMnvQERZFXW6Y+K18AQizu8h4KQiCh3l8ErMibqFNhKaIsZVmY+pZVnqjlazgYDrUZadfwFi3kNHPIfgJqk7N92cOaY8kem1qDYQE4U3FeqHIXTuH6sgRbOn3gLlzhCak5T1BgKy8HpYOAwR6NWOPW+aO5v9rQyg8BVEMufLdWVF1mMchlieU4kvQRsNuMers5n2UsynhiB0wTILk5WuUtAT5x6OjkZuDMK5p8DQkLOJmB512bBbUxAQ8DXEGFEIZi5fl3D6DpaYgsAn1e1t1gRwZmGymKRUDRSdE0nloAOj4jsI9d1e22lXl1QWXeuow38TYe7SFXZ/jcJLoJTD+TTp/gj27LvDknEPtatNsN/YNdLEwbOlh/Wj9tiw3WEw1XEVcZ9Dr9NUuNPqBEMvjhzOWki1TXz+ppcppCkIHNvHk8hikzdG4dXZjFdc1fhYybRLDRXRp70YQcAx0tmblbkMM7dcMOKwe0gG0uew47lH1YZTiLa3ujbidN0BPmNakyfDEHjyCfFEAE5/e2dI/HKknZSy6Ce4ETqDLqGVul6P3iC5R57IheoL76lQWV9ymWNCcCP/HiHCaqzfH+CXJDhzJ9NXxVhqED8sLiCab72+vEq6jKsXt3VQtW027VjCfffyyoiCgfKQN0VbpWlatd3oFkf37w+VStqPrus2VHznBa6VlZWVlZWVlZWVlZWVlZWV1W/pH4yyOPt3DC3wAAAAAElFTkSuQmCC;" vertex="1" parent="Uzhfiwogue9IJAyO5cRf-30">
          <mxGeometry y="110" width="60" height="60" as="geometry" />
        </mxCell>
        <mxCell id="Uzhfiwogue9IJAyO5cRf-35" value="inicio" style="text;align=center;html=1;verticalAlign=middle;whiteSpace=wrap;rounded=0;fontColor=#FFFFFF;" vertex="1" parent="Uzhfiwogue9IJAyO5cRf-30">
          <mxGeometry x="987" y="125" width="60" height="30" as="geometry" />
        </mxCell>
        <mxCell id="Uzhfiwogue9IJAyO5cRf-36" value="" style="strokeWidth=1;shadow=0;dashed=0;align=center;html=1;shape=mxgraph.mockup.containers.browserWindow;rSize=0;strokeColor=#666666;strokeColor2=#008cff;strokeColor3=#c4c4c4;mainText=,;recursiveResize=0;" vertex="1" parent="A_bzhGqca7OsKrDOXUyh-1">
          <mxGeometry x="5" width="1480" height="1030" as="geometry" />
        </mxCell>
        <mxCell id="Uzhfiwogue9IJAyO5cRf-37" value="Page 1" style="strokeWidth=1;shadow=0;dashed=0;align=center;html=1;shape=mxgraph.mockup.containers.anchor;fontSize=17;fontColor=#666666;align=left;whiteSpace=wrap;" vertex="1" parent="Uzhfiwogue9IJAyO5cRf-36">
          <mxGeometry x="60" y="12" width="110" height="26" as="geometry" />
        </mxCell>
        <mxCell id="Uzhfiwogue9IJAyO5cRf-38" value="https://www.draw.io" style="strokeWidth=1;shadow=0;dashed=0;align=center;html=1;shape=mxgraph.mockup.containers.anchor;rSize=0;fontSize=17;fontColor=#666666;align=left;" vertex="1" parent="Uzhfiwogue9IJAyO5cRf-36">
          <mxGeometry x="130" y="60" width="250" height="26" as="geometry" />
        </mxCell>
        <mxCell id="Uzhfiwogue9IJAyO5cRf-39" value="" style="rounded=0;whiteSpace=wrap;html=1;fillColor=#000033;strokeColor=#6c8ebf;" vertex="1" parent="Uzhfiwogue9IJAyO5cRf-36">
          <mxGeometry y="100" width="1480" height="60" as="geometry" />
        </mxCell>
        <mxCell id="Uzhfiwogue9IJAyO5cRf-40" value="" style="shape=image;verticalLabelPosition=bottom;labelBackgroundColor=default;verticalAlign=top;aspect=fixed;imageAspect=0;image=data:image/png,iVBORw0KGgoAAAANSUhEUgAAAIQAAACECAMAAABmmnOVAAAAYFBMVEUAAAD///89PT2YmJjBwcHs7OwgICAjIyP7+/sxMTHU1NTo6Oj19fXLy8v4+PgbGxuAgIBLS0tEREQLCwuOjo7b29tWVlYUFBStra1ycnJjY2OIiIinp6dbW1u4uLgpKSmGNJ26AAAE0UlEQVR4nO2Z6ZKzKhCGG9FERRR3ccv93+XXBjHGLM6JQ6ZOFe+P1Jg48EgvNC2AlZWVlZWVlZWVlZWVlZWVldX/R0lbpVlwSer8rwgc0dA0OCd/BoBquMDPS1tQSkV1/guENKIA0o2Ill82IvguwxAJqEpyk+9PnyWtvsdQez0IXwOwXrbD0ErRlLggXfIliIbBoBH4sP5l6Esypl+BIBK8maF7+PFEy1CYZ5B+ImYG+uz3fGi4NA0xhsAVg/fqloBywz7Km5q9MsZNtDfpG3nZBypBxG+fNhDiYhLCURCR8/5ORwzvbzgg3lxUcHg7EJhZpak06rqgsmW0b/W8yszscLTU0fGTQAyy2gRE6tf0TZp4xDiZoCDDRUGUP7u/NrGf8HF2CvLDGMwN+IVgUPwXeyiQzHnuHInzme96ElSm8KZxV4UFB0rWijjVYZzh5bOQDvD77BOIvtSTFXgV3iZ1NxBTWm3UAjgT82PWcNgLuF05UXpW+Yqd9iAICXMNQcJtMXq+/vNHENCE0KkZ+n0INJKGIOFmIGXKzyByUum5032Iq/86K6BFc9L7DGLKmum82CB3IbzTAjEt3aKRHIIAr4BGjdCBFKLcQDDRCSGorgLFDWIV1j05CFH5zmwHf9qv3Q2Etj3T398grhF1x/AxxBSmqUoWrH4NMRejbA0x73sdOQ6Ro0HE8pz8BUSgLqM7CH+qyFae9DkEjt9qz6L6sR4gMnXp3UGQKIN2dXkAAgQmwFAvcP8cYrZ7eQ9BvNZfXx6AgKaEi/K8eFCLsoUYYnXZbCA2OgIB4QiOmiYOrhQLhDdO4noWaQiiTpIaPIqxqszsTBQvkhUGhxmI0WOMRRj0UlGwDOP0BYRcQayS/PL3xxB8mUDnArTItp5QamAFsSo/wvPvQHgtUszhhhapnkGo3WKByDVFCMnvQERZFXW6Y+K18AQizu8h4KQiCh3l8ErMibqFNhKaIsZVmY+pZVnqjlazgYDrUZadfwFi3kNHPIfgJqk7N92cOaY8kem1qDYQE4U3FeqHIXTuH6sgRbOn3gLlzhCak5T1BgKy8HpYOAwR6NWOPW+aO5v9rQyg8BVEMufLdWVF1mMchlieU4kvQRsNuMers5n2UsynhiB0wTILk5WuUtAT5x6OjkZuDMK5p8DQkLOJmB512bBbUxAQ8DXEGFEIZi5fl3D6DpaYgsAn1e1t1gRwZmGymKRUDRSdE0nloAOj4jsI9d1e22lXl1QWXeuow38TYe7SFXZ/jcJLoJTD+TTp/gj27LvDknEPtatNsN/YNdLEwbOlh/Wj9tiw3WEw1XEVcZ9Dr9NUuNPqBEMvjhzOWki1TXz+ppcppCkIHNvHk8hikzdG4dXZjFdc1fhYybRLDRXRp70YQcAx0tmblbkMM7dcMOKwe0gG0uew47lH1YZTiLa3ujbidN0BPmNakyfDEHjyCfFEAE5/e2dI/HKknZSy6Ce4ETqDLqGVul6P3iC5R57IheoL76lQWV9ymWNCcCP/HiHCaqzfH+CXJDhzJ9NXxVhqED8sLiCab72+vEq6jKsXt3VQtW027VjCfffyyoiCgfKQN0VbpWlatd3oFkf37w+VStqPrus2VHznBa6VlZWVlZWVlZWVlZWVlZWV1W/pH4yyOPt3DC3wAAAAAElFTkSuQmCC;" vertex="1" parent="Uzhfiwogue9IJAyO5cRf-36">
          <mxGeometry y="100" width="60" height="60" as="geometry" />
        </mxCell>
        <mxCell id="Uzhfiwogue9IJAyO5cRf-41" value="" style="verticalLabelPosition=bottom;shadow=0;dashed=0;align=center;html=1;verticalAlign=top;strokeWidth=1;shape=mxgraph.mockup.graphics.simpleIcon;strokeColor=#999999;" vertex="1" parent="Uzhfiwogue9IJAyO5cRf-36">
          <mxGeometry y="160" width="740" height="710" as="geometry" />
        </mxCell>
        <mxCell id="Uzhfiwogue9IJAyO5cRf-42" value="" style="verticalLabelPosition=bottom;shadow=0;dashed=0;align=center;html=1;verticalAlign=top;strokeWidth=1;shape=mxgraph.mockup.graphics.simpleIcon;strokeColor=#999999;" vertex="1" parent="Uzhfiwogue9IJAyO5cRf-36">
          <mxGeometry x="740" y="160" width="740" height="710" as="geometry" />
        </mxCell>
        <mxCell id="Uzhfiwogue9IJAyO5cRf-43" value="&lt;h1&gt;Heading&lt;/h1&gt;&lt;p&gt;Lorem ipsum dolor sit amet, consectetur adipisicing elit, sed do eiusmod tempor incididunt ut labore et dolore magna aliqua.&lt;/p&gt;" style="text;html=1;strokeColor=none;fillColor=none;spacing=5;spacingTop=-20;whiteSpace=wrap;overflow=hidden;rounded=0;" vertex="1" parent="Uzhfiwogue9IJAyO5cRf-36">
          <mxGeometry x="740" y="750" width="190" height="120" as="geometry" />
        </mxCell>
        <mxCell id="Uzhfiwogue9IJAyO5cRf-44" value="&lt;h1&gt;Heading&lt;/h1&gt;&lt;p&gt;Lorem ipsum dolor sit amet, consectetur adipisicing elit, sed do eiusmod tempor incididunt ut labore et dolore magna aliqua.&lt;/p&gt;" style="text;html=1;strokeColor=none;fillColor=none;spacing=5;spacingTop=-20;whiteSpace=wrap;overflow=hidden;rounded=0;" vertex="1" parent="Uzhfiwogue9IJAyO5cRf-36">
          <mxGeometry y="750" width="190" height="120" as="geometry" />
        </mxCell>
        <mxCell id="Uzhfiwogue9IJAyO5cRf-45" value="inicio" style="text;align=center;html=1;verticalAlign=middle;whiteSpace=wrap;rounded=0;fontColor=#FFFFFF;" vertex="1" parent="Uzhfiwogue9IJAyO5cRf-36">
          <mxGeometry x="1080" y="115" width="60" height="30" as="geometry" />
        </mxCell>
        <mxCell id="Uzhfiwogue9IJAyO5cRf-46" value="hombre" style="text;align=center;html=1;verticalAlign=middle;whiteSpace=wrap;rounded=0;fontColor=#FFFFFF;" vertex="1" parent="Uzhfiwogue9IJAyO5cRf-36">
          <mxGeometry x="1167" y="115" width="60" height="30" as="geometry" />
        </mxCell>
        <mxCell id="Uzhfiwogue9IJAyO5cRf-47" value="mujer" style="text;align=center;html=1;verticalAlign=middle;whiteSpace=wrap;rounded=0;fontColor=#FFFFFF;" vertex="1" parent="Uzhfiwogue9IJAyO5cRf-36">
          <mxGeometry x="1267" y="115" width="60" height="30" as="geometry" />
        </mxCell>
        <mxCell id="Uzhfiwogue9IJAyO5cRf-48" value="contacto" style="text;align=center;html=1;verticalAlign=middle;whiteSpace=wrap;rounded=0;fontColor=#FFFFFF;" vertex="1" parent="Uzhfiwogue9IJAyO5cRf-36">
          <mxGeometry x="1347" y="115" width="60" height="30" as="geometry" />
        </mxCell>
        <mxCell id="Uzhfiwogue9IJAyO5cRf-49" value="" style="shape=image;verticalLabelPosition=bottom;labelBackgroundColor=default;verticalAlign=top;aspect=fixed;imageAspect=0;image=data:image/jpeg,/9j/4AAQSkZJRgABAQAAAQABAAD/2wCEAAkGBw4QEBEOEBEQDw4PDhEODg4PEBAODg8OFhIXFxYSFhYZHSoiJhsnHBYWIzMnJystMD0wGCE2Ozg7OiowMDIBCwsLDw4PGBERGy0eHiEtMTEtLTEwLy8vLy8tLy0tLy0vLS0vLy0vLy0vLy8vLy8vLS8vLzAvLS8vLy8tLy8vMf/AABEIAOEA4QMBIgACEQEDEQH/xAAcAAEAAQUBAQAAAAAAAAAAAAAABwECAwQGBQj/xABMEAACAQIBBAwGDwcEAwAAAAAAAQIDBBEFBhIhBxMiMUFRYXF0gZGzNFSTobHRFBUXI0JSU2KSlMHC0tPwFnKCg6LD4SQy4uM1svH/xAAaAQEAAgMBAAAAAAAAAAAAAAAAAgMBBAUG/8QAOBEAAgECAQgHBwQCAwAAAAAAAAECAxEEBRIhMVFxobETgZHB0eHwFBU0QUJSYSIzYsIkMiNT8f/aAAwDAQACEQMRAD8AnEAAAAAAAAAAAAAAAAAAAAAAAAAAAAAAAAAAAAAAAAAAAAAAAAAAAA8vLOXbSzjpXNaFPFYxi8ZVJfuwWMn1IzGLk7JXYPUBHN7st2kW1St69RL4UnCjF82tvtSNT3X4+JS+sL8s3I5OxL+jilzZHORKIIu916PiUvrC/LK+69HxJ/WF+WZ92Yr7OK8RnIlAEXrZdj4k/rC/LLlstrxJ/WF+WYeTsSvp4rxJLSScCMlstLxJ/WF+WVWywvE39YX5ZF4HEL6eK8SShJkmAjT3V14m/rC/LK+6svE35f8A4EXg6y+nivEl0U9hJQI291VeJvy//Ae6qvE35dfgMey1tnFeJLoKmwkkEb+6ovE39YX4B7qa8Ul5f/rMezVdnFeI9nqbORJAI391JeKS8v8A9ZsW2yfbt++W9WC46c4VMO3RMOhUXy5GfZqv28iQAePkfOKzu9VGqpTwxdKW4qpcei9eHKtR7BU007MpacXZqwABgwAAAAAAAAAADzM4sqxs7WtdSWO1wxjF6tOo3hCPXJpdZlJtpLWwczsg57ewV7Gt9GV5OOMpPdQt4Pek1wzfAut8CcMXVepVnKpUnKpUm8ZznJylJ8rfoMl1XnVnOrUk5VKk3OcnvuTeLf8AgxaJ6bC0IYeNlr+b2+RlwbLcCqiXqJeomw6liUaRj0CuiZdEaJHpSzoTEolyiZdErokXUJKlYsSLlEuSL0imUy6MC1IuSLki5I15TNiMSzAYGTAYFbmy1RLMBgXYDAi5ssUCmBXArgXYFTkWKAg3FqUW4yi8Yyi3GUZLeaa1pkmZj55yrSja3Txqvc0a71bY/iT+dxPh3t/fjPAujjvrFNa008GnxplM7SWkxVw8asbS7dnrifRQPBzNyv7MtIVJa6sHtNblqRS3XWmn1nvGm9B56cHCTjLWgAARAAAAAABHuzJctW1Cinhtlw5y5Y04PV2zi+okIjXZlWqz56/opmxhP3ov1qJ01eaRFygXaBkUSuidrpDfVIxKJ62QM3rm9noUIYqOG2VZbmlT/elx8ixZfm5kWd7cQt4blPd1amGO10l/ulz60lytEx16tpkq01La6NNaMIxwc6tRreXHN4Y4vlb1I1a+Kcf0x0yZXUeY1FK8meJkjY1s6STryncz4Vi6VJPkjF49rZ7kc2MlxWHsS0/ipU5PtksSMMvZ7Xt1JqM3b0fg0qMnGTXzqi1t82C5DmZpyek3pN77lum+tmt0VWemc/XagsLUlplKxO/7O5L8Us/IUfUP2dyX4pZ+Qo+ogdUlxeZFVSXEuxEXh/58PMl7G/ufZ5k7/s9kzxSz8hR9RX9ncmeKWnkKPqIJVJcXmRcqS4l2Ii6L+99nmZWCf38PMnP9nsmeK2fkKPqK/s/kzxWz8hR9RBm1R4l2IbWuJdiI9H/J+usmsDJ/W+zzJz9oMmeK2nkKXqHtDkzxW08hS9RBmguL0FNBcXmRjo/5P11klk+X/Y+zzJ0ebeTZavYtr/DRpp+ZHkZU2PrCom6anbz306ctKGPLCWOrmwIkjDDWtT40sGe9kbOy+tWsKsqtNb9Kq3Ug1xJvWup9Ri0lqkS9hrQ006mns72Ys4c17mye7SlSbwhXhjtbfFLhi+R9TZ42BNmRsr22UrdrRTxWhXoVMJOOPA1wxevB8nGsCNM8M33ZV9GOMqFXGdKb1vBb8G+NYrqa5Qqj1PWXYTEOcnSqK01x8+Fjn8BgVKhyOlmne7E9y1UuKOOqVONRLicZOLf9UewksivYq8LqdFl3tMlQpb0nncpRtiHuXIAAwaIAAAAAAI32Ylqs+ev/AGiSCOdl5arTnr/2y2g7VE9/Jl+GV6sV61MjVRK6Jk0Rom66h2swlTYtyYqVpK4a3dxN4PhVKDcYr6Wm+tHG5/5Ylc3c4J+828pUKceDSTwqT53JYc0UShmqlGwtcPFac+twUn52Qdi5Nyety3TfG3rZrQlecpM0sLDPq1Jv5aOfgY9EYGTRGBd0h0MwswKpF2BXAi5mcwtwLkiuBV6t/VzkHMkobCmAwKp472vmYwIZxYoFowLj180bOnWvqFOqk6cpycovem4wlJRfI2l6OEZwk1CLk9SVzyHTeClg9F6lLB6L5mW4H0DcWlKpTdGcIzpSjoyptJxceLAge/pRhVqwg9KEak4Qlv6UIzai+xIhnFGDxaxGcs21us3M2srStLinWTehjoVY8EqTe6XVvrlSJRz4yfG4sarWuVGLuKbWv/YsZYc8dJdZDi+0nDIq2ywoJ69OypKXLjSSZBs18px6OdOtHWny0r1sIOARUNnatY7LYr8KqdFl3tMlQizYr8KqdFl3lMlMweZyp8Q9y5AAA54AAAAAAI72XFqtOev/AGyRCPtlharT96t/bJQdpXNnBq9ePXyZHaiFEyKJcomekPRKJNGb3/j7bodLukQfCOpc32E5ZA8BtuiUu7RCUY/rqIqVjnZNV5Vd6/sY8BgZNErgOkOrmGLRN/JGR693Pa6MdJrXOb3MILjlLg9PEZMi5KqXVaFCGpy1ym9apwX+6b/W+0iWqcLXJttwU6VNYylqc6lR8L45P9akZz2aWLxPQ2hFXm9S2Hi5I2P7SklKu5XE99ptwop8kVrfW3zHuv2uttT9iW74ntNF+fAjfL2eNzctxhJ29HeUKcmqkl8+a19SwXPvnN9e/rZFsoWT61XTWnb8etC6rk1qvk243ClZ18fgaVCrj1azy8rZi2NbF007apwOlrp48tN6sObAid6z28iZ03lo0lJ1aS36NRuUMOKL349WrkYuZeTqtLTRqadmry7VYwZfzeuLKSjVjpQk8KdWGLhPk5HyPznkwnKLUotxlFqUZRbUoyTxTT4yasnX1rlK3luVOEloVaU8HKEuJ+lNc6IuzqyDOzrOm8ZUZ4zo1HvyhwxfzlvPqfCZubGDxbqt0qitNcfPhYzXOeeUKlJ0pVUk46MpwjGFSS4d0t7qwZz+ABi5v06MKd1BJX2BE45ueA2vQ6PdIg5E45ueA2vQ6PdowcvLC/44b+4g2JUoioO01pZ2exX4VU6LLvKZKZFmxX4VU6LLvKZKYR5fKvxL3LkAAZOcAAAAAADgdlRarXnrf2zvjhNlBY+xeet9ww3ZXNvAL/Ih18mcAohRMygV0DVdQ9QkS/kLwG36HS7pEKqJNeRPArfolLu0Qyo/YWzlZROXktfrrb1/Yx4FMDLojDDX1leeddLSSVsdZLVK3dxJe+XEng+FUovCK63pPrRyefOWHc3EqcX7zQlKnBcEprVOfbqXIuVkjJ+x7HFb9CyxXPClj9hDLWt85bOVkkcfJ8emr1K8ttl1+C0dZiwKNGRotaIKR2M0sBcUJXJZp6mbGWJWlxCqm9rk9CtHglTb1vDj4VzcrJKz1ybG6sqjSUp04+yKTWtvRWLS544rsIgJmzOuNtsLeT14U9qeOvFU5Onr+iTizj5Vh0cqeIjrTtv+a7+ohUqZ72iqdWpBb0Kk6a5ozcfsMJi52VZ6UETdm74Da9Dpd2iEkTbm74Da9Dpd2iS1nGyz+1Df3EHx/XYXFsf12Fxg7T1s7HYs8KqdFl3lMlMi3Yr8Kq9Gn3lMlIkjy2VfiXuXIAAyc4AAAAAAHEbJUcfY3PV+4ducbsiLH2P/ADfuFVZ2g2bmA+Ih18mcJoFVA2dAOBy3UPUolLIvgdv0Wl3aId0fsJiyR4JQ6LT7tESKBuVnaMN3gcrJf+9bev7GDRLZQx1cZsuBY4lGcddEt3C2+yko69uspaPPOlq9JDbRKmY1+qtqqbe7oPa3x6G/B82Gr+E4jOzJDtriaSwpVG6lJ8Gi3rj1N4c2HGbdR3ipo5GTX0Varh3rvddXlZnPtFrRmaLGipSO0YmimBkaKNE1IyYiY8yaDp2FunqbjKp1TnKa8zRFuRMlyurinRjjhJ4ykvgU1vz6l52uMlTOa9jZ2U3DCLVNUKEVwSa0Y4cyxf8ACXU3rZxsrSz+joR0tu/cubIgylUU61Wot6VWpUXNKTa9JrlzBi52M1JWRaibs3fAbXodLu0Qkibc3fAbXodLu0TjrONlr9qG98iD4lxbH9dhcYOzLWzstivwqr0afeUyUiLdivwqr0afeUyUiaPLZV+Ie5cgADJzgAAAAAAcjn9HFW/PV+4dccrnxHHaP5n3DXxbtRk93NG5gPiI9fJnGqBc4GwoBwODnnpVIkLJa/0lHo1Pu0RWoEq5NX+mo9Hp/wDoiNXS9B08XLNVPd4HLya7Trb1/Y03AtcDadMxygaqmddSNjIOVJWlZVFjKD3FSC+FDk5Vvr/JIWULO3v6CWKcZLTp1I65Qlxr0NEYyib+RctVrSWMd1Tk8Z0pPcy5VxPlNujXUVmy1GhjMG6rVWk7TXHz4WNXLOQbi1k1UjjTx3NWKbhLr4HyM8hxJbyfnLaV1ouShJrB06zUceRY6mX3GbVhV1uhBY68aelST+g0X9DfTB3RVHKsqf6cRBp/j59T7nYh9xNzJeR69zPRo03JY4Sm9UIcspcHp5CUqGa1hB4q3i389zqLsk2hfZesrSOg5wTisFRoJSkuTRjqXXgSVG2mTsZllbP/AE0IOT/Pgr8yzN/IdGwpNuSc2tKtWlhFYLXgsd6KOAzyy67urhDFW9LGME9Wk+GbXLwcnOzLnHnNWu9wveqCeKgni5cTm+Hm3uffOecRKotUdRdgsHOM3Xru83w8+CX51YdEtwMzRa0RTOmY8CbM3fAbXodHu0QtgTTm/wCA23RKXdoupu7ONlr9qG/uIPj+uwqP15gwjsy1s7LYr8Kq9Gn3lMlIi3Yr8Kq9Gn3lMlIsR5bKvxD3LkAAZOcAAAAAADnM8I47T/M+6dGeFnPDHa/4/umpj3bDz6uaNnCO1aL38mcrtYdM3dqKOkebzjudIddk3Xb0kvkYL+nAj90zuM36uNLR4YSa6m8V6cOo53LNm6dWWrcybnDmfB1PUdbFvPo0qi1Wt2271Y0MHPMrVIvW3yv4niypmCdM9CUDDOBoxkdaMjzpQMUoG/OBglAtjItUjUlArTuKkNUJ1IfuTlD0MyygWOBapll76GWV7qtNYTqVZrinUnJedmtoGw4FjiWKRKOjQjXcS1xM7iWOJYpGTC0WuJmaLGixSMmHAmfIe4sbfHVo2dJvk96TZFGScnzuK8KEd+csJNfBj8KXUsST86bqNvZVdHc40nQppb6clorDmWL6jZpPQ5HGys8+VKjHW35L1+CGsC1mWSLJIzFnabuzsNivwqr0afeUyUiLti3wqp0WXeUyUS2J5bKvxL3LkAASOcAAAAAADysuQx2v+L7D1TRynDFRfFiu3/4aeUPhqnVwaZbRdppnhOkWukbzgWuB5TOOipmvY3DpVMfgvVNca4+dHt3tpC4gtfzoTWvD/B4lSBfZ3k6T1bqD34ve50dPBYyMIulVV4Ph5cbldWm5tThokvXr8HnX2T6lN4Sjq4JrXF9ZoygdvRylRmsHJRfDGerz7xc7W3eva6T5dGDNv2CE9NGomu3l3q5KOPlDRUjp9bSP5wMUoEiewLf5Kl9CJT2ttvkaP0Iklk6p9y4lqypBfSyNZQMcoEne11r8jR+hAp7XWnyNDycCSyfP7uBNZWpr6XwIulExyiSp7VWfyFDycCvtVafIW/kqfqJrAzXzXEn73p/a+BEziWSgS17U2fyFv5On6h7UWXi9v5Kn6iSwc181xM++Kf2vgRC4mzk/Jla4loUqcpPHByWqMf3pbyJUeS7GOvaLZYcLpU9XmMF3l+yoRw2yDw1KnRwm+bCOpdeBNYfN/wBpWMPK0p6KNNt9vBeRgzbyDTsoOTalVkvfKnwYrf0Y4/B5eHsS4vPTLquqihTeNCk2ovgnPedTm4FyY8Zlzhzoq3KdKCdKg9+Ke7mvnvi5F5zm2hOsrZsNRdg8HNVHXru83w7tWhJat5ruJjlE2WjHJGIzOodVsXr/AFVTosu8pkoEcbF1ButXq8EaShjyznj9wkc26f8AqeXyq/8AJluXIAAmc4AAAAAAGK4p6UWuwygjOCnFxlqegJ2PEZTA37u2x3Ud/hXHymiePxOGnh55kup7fXz2dhuwmpK6ME4mGUDakixxKUy+LNKcDBOJvzga04k0XwmaU4mvOJuzia84k42NmMmas4owyibU4mCcS1WNiMjWlHkMTjyGzJGKSLFbYXKTNaUTHKJsSRjki1WLE2a0oljRsSRiaLYsndsxtGNoytGOSLYyMmNmKZmkdfmfmq5Sjc3EcKcWpUqclhKcuCUlwR5OHm39inFydkU168KEM+f/AL+F60HQ5lZLdvax01hUrNVpp78U0lGL5kl1tnRAHRSsrHj6tSVScpy1t3AAMlYAAAAAAAAAMFa3hLW1r4+EzghUpxqRzZq6/JlNrUefKwfBLzYFvtfLjX66j0gaLyXhvt4vxJ9NPaeVLJsuNdv+DFLJM3ww8/qPaBn3Xhtj7X4kliJo8CWRKj+FD+r1GKWb9R/Cp9svUdIDPu3D7H2ssWMqrZ2HLvNyr8al/V6jE82K/wAen2y/CdaDPu6hs4sn7fW2rsOOeatf49Ltl+EseaVf49Ltn+E7QGfYKGziyXvGvtXYcS80K/x6X0p/hLHmdcfHo/Sn+E7kGfYaOzizPvPEbV2I4N5l3Hx6P0qn4S15kXHylH6VT8J3wM+xUtnEl71xO1diI/eY1z8pR+lU/CXUcwqrfvlanFfMUqj8+B3wJLCU1t7Q8q4l/NLqXec/krNW0oNS0XVqLWp1UpKL44x3l6ToAC+MVFWSsaNSrOpLOm23+QACRWAAAAAAAAAAAAAAAAAAAAAAAAAAAAAAAAAAAAAAAAAAAAAAAAAAAAAAAAAAAAAAAAAAAAAAAAAAAAAAAAAAAAAAAAAAAAAAAAf/2Q==;" vertex="1" parent="Uzhfiwogue9IJAyO5cRf-36">
          <mxGeometry y="870" width="40" height="40" as="geometry" />
        </mxCell>
        <mxCell id="Uzhfiwogue9IJAyO5cRf-50" value="" style="shape=image;verticalLabelPosition=bottom;labelBackgroundColor=default;verticalAlign=top;aspect=fixed;imageAspect=0;image=data:image/png,iVBORw0KGgoAAAANSUhEUgAAAOEAAADhCAMAAAAJbSJIAAAAkFBMVEUZd/P///8UdfMAb/IAcfP3+/81hvQAbvKdvfgzhPQAbPK61Pu+0/sAc/Pe7P3z+P7u9f4qgPTP4Pzo8f52qPchfPNypffY5v3K3fxWlfWKs/jf6v2hw/pjnPYwgvRtoveBrveuyvo+i/W1zvpYlvWTuvmoyPpHj/XD2PuRuPiewvmevPjZ6f2GsPi00ftKkvYgKPXJAAALgElEQVR4nN3dC3OiOhQA4JAE0bQUFFHroz5r7bZb//+/u6BWQV5JTg5x75md2Xt3pujXhLwfxEGP4PuwnU9Hi+Om04/T6Hc2x8VoOt8evgP8jyeIz3ZnP+/LjS+Exzn3aRokjeQvSv3k3zwh/M3y/WfmIn4LJGEw266ORLAURuoipTJBjqv1DCk9EYTubL7seYw32PJOzrzeco6RmKaF4WHVSbOkNC7DTFKzM3yODH8jo8Jwu4iTtNPQXZWcxbu1UaQ5ofu8IMwH6K5KRo9bc9nVlPB7yI3wzkbK+Ghs6JsZEQb7jQBlzhKkLzpzI6WrAWE0TfKVUd4Fyfjq5QGE4xE3nHwZI+fLgWXhYAcrOxuNPttNLArHC26sdKkMn72C0hEgnLXhOxt3gIJVW+iuWvKdjUPtclVXuPdR379CcP6nVeGg47XqS4J6Pb0iR0forkTbvpNRaGVVDeHhjVnwpcHjpxaEwaj1DHoLypYhtnDyxq350uD9A65w2m4JWhKUrRCFYc9uAp6Dd5R6yCrCifUEPAflKjlVQdj1bNOu4b0jCIOlxTK0EGwhXTXKCqONrUqwPPhG9mWUFI777TWz5cKPJfsbcsKD1gAoblAu18CREq6FbU5piL0p4dxKQ7s5qOiaET5QLXEfMrVGs/D9sQrRfHifcOHn46ZgGt4UKuw+cgqm0ZhRG4TzR2rIlIfXUNzUCx+0mshHQ6VRKzw8aDWRDypqq/464fjRWmpVwesacDXCKP4XUjANGtc0w6uFweZfScKkGb6p7kxVC5ePXk9kgy/UhS03ZW7rifSCVVaLVcJJS00ZyhkTQpyqXT9dJJX8N2OcK3u9qrGbCmHYxqCaz4XYrOZPg+i28iJ8GU9+9l+rRYemVoWVObyitKkQ9tCLUc7IYv1d8Xs/RzTZfi43RPKr0J6KcIqchNSLh9IzSWvJEoH9lRdOcIE+P24VZpGeZcs8VvoqlgmDPuriA09x7YG0kPbLpm3KhCPEJKTeRnWiU1pI+FJO+IxYUVA2V/SpCAkraYMXhZh5lG80FjkpCGlcfL+LwhVaHqXeUN2nJCS8+AkF4QCv08vVc6iqkIjCW14Q4tX1/o8WUE1I35qEc6xiRnYQHigk3v26mzuhizYJKraaQEUh5XeFzZ0QrZiRGoA3ISwUNnnhN8pSWFJRF+MICcuP2uSFO6SBC/oGWJmuKvR31cIBVh71ICtEVYWE5T4tJ8RKQtY4uWBUmE/ErBCr00TfQIvulYWEZ6v9rBAtCdcQoIYwl4gZ4QBpdI12QEANYe5NzAiXSEnI160L/UzldBNGWM2ZGAbUERJ266XdhH+RyhmusELLmJDfFjBehQHWkhkG3WunI8y0Tq/COVY58wEEagkzfdGrsIPVIl1bEd7Gh3+FY6yuvVBemG1ESMRvhfErHGG1uYGVobbQH+WFaD1frt4kDaOXXOiVEJS7OeEWa7bQUxq7GHR3ferfhebv3tvmhDu0wQv51zCc+oIDJ0ozQV+zwtDUYwsfUxj6qgp36pl9UyiNMkLZCSzl8Kvn1/Px3TP+FS5dmrMQLZPKFjQDhJLukk1Pwig2/vhLcKllvM5MdqJXLaKr8IC27qJy/UAu3A0KkD1fhUO0yRghtaD+HefzzyOnqdDFapMmaShTWYRIH0477kU4xptPozJCtFW6p7HhVPgHb/lTyYxlMT6wshDrXoQLvCV6MuOIM7QsdKqNE2HwhvYa0p7EaD5ac4OQfnASzvBWJpzf9YbAGiBKQsxOQsTfoZQQ8SVh+5MQb2mCnPCIuPZjeBKiFWVyQqQGzfnzP1Khi9VzIpJCvPYGob6bCL8R91TYFqatRoI3gEEeQMi2ifATc52ebSH/TIRYU05pWBcmrRqCNtidhnUh7SRCzIMSrAsJd0iIuT3NvlCEBG3CIo0HEI4J3hgNeQQheyJrzHX5DyBck+7/W8i/CGLv7BGE/oosUfdWWBfSJUEb0D89375wRxB7hw8h/CAdxMc/gDDx4Q20kUcQ0j5Bm3Y6Pd+6ENf3EEITkd5yUBFMYn23+8aqH8DxjmFWAI66lfE1lxDOv6ofkIT9JC7fuWkuUKszOaHubh+5CPvQLwgua5CFL8B2cwyvD5GFwKMPkvoQ3KZBFkKnbzvwdimyEDhvRDfwvgWyEPj9kr4FuH+IK4S2eJL+IbiPjysMgQvskz4+eJwGVwgd7ORf8LE2XCF0ZoytyRN0vBRXCF0Qxp7gY964QugKezGGz1vgCqGT/CKEzz3hCqELT5mB+UNUYQTMYaf5Q+iCHVThAbhe6zQHDJ3HRxXugSU9nxpYi4EqhLa42DoRQqsLVOErtCgdG1gThSoEjkCc10RBh3owhS60KN2cVu4BV+pjCsHt7vPaRGB5hSn8gRal5/WlM9gvClP4BSxKL2uEA9iIJKYQuiLtss4b2KrBFAKP5fpdqw/c0YEpBPYKrvstxo8qfIE2t373zMDGsxCFE5jwvNsDvncNUQjcJ3HesH4S6u14/xX+uDUh4aj+WWhb5Lb/MAI9qN/p9ar+HCVmSI9VP96BHgp/20MKbMLTyvAl9j25Hb/y50G+7D5gtI1BVlcqsH1GGCHtKrEpzO/Hx9p7ZFV4dLJCpG0lNoW/Z6hdhAHOshWLwus5Srjn01gUXg80+xXiHB9sUVg4Ywjn/GB7wtuhKrezvjDWe9sT3q7xvgpDjLLGmpCy61EHtzP3MLYDWxOWnbnnzBCqRGtCNisRYmxEtCXMHm2Ee36pLSHLHEKbPYMWOg1SDEvC32O+CkLgsEjZR9kR5hb15s6CfjX9JtoR5pIwLzSeiHaELHcDRP5MdtOJaEXo55LwTggbGy6GFWHtufqmT/2yIeSj/PPvhIHZyxEsCCmrv9/C8LlbFoTs/iKNwj0zRveytS+k/fvnF4QTk5399oWisIOneN+TycKmdeF9MVMqDAxeIdu2kMbFM/5K7l0zOHbatpCVXEhUdnfe0lg+bVlYeqNsmTA0lk/bFZbl0Yo7LI2dBtKuUP4OS8dZGSK2KmSr0udX3CVrqN5vU1is62uFkZlEbFFIPbX7gJ2DkaZNi8LK4+0r7+X+NJGK7QnZZ9Xzq+9WXxioFVsT6tyt7oQd+JBGW0LaqT6RuVroRPCKvyUhjWfVz68RGjgFuyUhq7uar07oPEEL1HaEovYK11qhMwdvO2pBKO7vVlUROl3gfv8WhF7DnWANQucTRGxB6DXdoNEkdKYQIr7Q+9v0/EahMwU0btCFzUAJISSjYgsbs6ic0Olql6jIQlHZGFUU6lcauMKGakJF6DxpLrbBFFIud1e7nNAZxFrNcEQhjSVvUZYUOi8bnUYqnpB3XhqfrCZ0woXOZZlYQraTvs9NWqhVayAJqVC4c1BB6ByUp09xhFTpykEVoRO9KeZUFCHvK91OqyRMh4qVvg6CkLKh2ldWFDqHvkqZal7IY9WNZKpCJ1wqJKNpIWUL5fuTlYWOs42lk9GwkMdr9a+rIXSCoZD8UkaFVCx17hbWETrOpC+XVQ0KKevrHSOqJ0zX3chkVXNC3jQcUxm6QicYsebGuCkhZVoZ9BTaQscZvzYazQgpf5W6CrM8AMLkdXxteB1NCCn7AJ3jCxKejHXpCBf67Ag8pxgoTPrGS1Y9AAAVcraYND6gIcDCpHO8qjx0GyZk3rBmTkk2DAiTltyfN1F6Cqe+kPoi7mqXn9kwIkxiMEoya+GragopZRyePS9hSphUkOsjvS9atYSU+R97mTto5cKcMIlo/Upy5Y6ykPqMHPeyg0xSYVSYRPQ87LFrUqoJKffelj/K3aOGMC1Mwh2/L2LB/eS1lBXSJO1EvHgfm8uc10AQphHM9sMNF57M7Q89Ifhm9AdDlwaS8BTBeP8eRfVGN4re91i4U2AKLxFGURBELy9ReDmuxg3C9H+Tf4yM1Hj18R+B8bxnnVxd3wAAAABJRU5ErkJggg==;" vertex="1" parent="Uzhfiwogue9IJAyO5cRf-36">
          <mxGeometry x="5" y="910" width="30" height="30" as="geometry" />
        </mxCell>
        <mxCell id="Uzhfiwogue9IJAyO5cRf-51" value="" style="shape=image;verticalLabelPosition=bottom;labelBackgroundColor=default;verticalAlign=top;aspect=fixed;imageAspect=0;image=data:image/png,iVBORw0KGgoAAAANSUhEUgAAAPgAAADMCAMAAABp5J6CAAAAclBMVEUdm/D///8Alu8Al+8AlO8VmfD4/P/7/v/t9/7y+f7i8v2z2vnK5fui0fjc7/38///U6/xWsPOVy/fA4PpHqvIinfA3pfGIxfa22/ltufR2vfXQ6fxgtPMtofF+wPVDqfKOyPap1ficzvfE4/tstfNfsfPWKkv6AAALw0lEQVR4nOWd6YKqNhiGIQsCAoICioqKztz/LRZ0VMISErIAp++fttZBH7N9WxLD/J/KmPoLMMk+7daF7/vFehfach45d3DLu2cpQAi8hRC+Hn3PEn3wnMFX4TaGAEKjKQgRjO7BSuTh8wUPbimCuAX9FoYo3brjHz9TcGsdAdAL/Wl58Lvj7PPr9281S3DHT0F/WxPtDtKCA/0Upe93zxDc8vPhxv6qRGcc7EEG0P39H/MD3115sJ/oscfwXPeIoZF8ZoW5gdsZYyevC4Pj0OoeHI3y94Q/nxc6wIWXSAGtE97mfgnmO9pjvTN+LhDw2zXa4F4sn4dRq+M47Epg3/dUp4jByxbA0ffVNvgVXJRQDctO27YKB3nc2d3DS/IZPODxfb0FvkMG8NXBUeRh/tFdF0zC5iPdewq/RlC9wdvgaTVXHJQSduswvpt/0ImB7vpX0tyFp9r/bYJ7qPpp8MnULR+JtXclDNZ/T9s8bjloGLwgq39eEzx6vTkJ9OB+VIi395t85fkRahu82HDqH9gAd9Hfu3JJbi+j5HBXfTVLUbOpX/r0hpca4Nv3F4CpY+rTjuKG8aL3vA7P5Ec2wPPvG2N95KEsaoqShl1Ggoe1HgdjXSacnUtr716B5nRNgm/rQw1Gesg3Z0kDnMbdMk1I8JR4tybyrQbutjFKgNuNLqelt59E7FRG7nP7YwnwXfO31zC3W1flA7yz5xLg+1ang6nq9Vx9Rwdt7mBLgsftHx8rtuFceSt4H/e5wW3tfkFIgG+Sjr/DCUtcZ7Qy1SMcHEnucJ9D5JNd3e3+U0zaelJ1QmqxMdjWPy4o3VRQjnmTBPe6f30M7qYqRWo7OoY1B/t0S19uamI3wFuT+lvgqIg7VNvgIH0HVd11ZvzFnwzwHLt18HvveAOKDPez0hEObtVnrE7+2ah5bOhlxNXB26vZRzBREZqwlTb41XMP95eXWhtQ8C8cUQc/0n5/UMgHvylt8ASgdqr1Y4zWwelLC8qk26+9zrMy4bwraTiwpsK0FcUUk+q1rEufEcsBXq5rhVTwi3r3pAFQC8PygJfd/SzTdNfd04mGY57cXoIJNUfFpVC9H06KiEYwLme1vx5MTLLK19zTSeuVzYAh/j6XlGdRbK62vjfBTYCzJnFgJlB081WiFRyR3KSTwjroYCIhrRho7emo6WjVwQPmx2CYCnvpvS6RAmFUND++Dm5xdD4MM8FJjm1GkSPQXouGQk/9gvAmVFrIsHhKUmfylwDnNKWgUQiAa5vUQd41FxPgvLl5DJLxS1s+/HwpAlFnxyTAXe5GwCAdi94V2VSgvqIgMoU0phVK9M0Ibp6ZdLxwr4lNgjMZrS2B1OePTNk6wHHca2qR4MwmTEMgufEaczrAcd7fII3CgLHfBkOYeVyrm63DKWUH349fXCG4+hw2jQ5wnPR/oQZ4IBINKle3zGMd7Y6Orp70D8BmuZdY0hZDkO9PbEFJDcsZD7h4fSEA6Y2FXYMBwwMuxUuGMD0+hvo8l2MwTlzgkkrtIEx+C2pqXYOTwgUub+xhYORZP7wGt5QPfC0zzA8BTs53r2tV0RCI4FjOKsmuximNG5ict7uANOk1hJ44wZVkdsqFDoAk2hffXbEaFnJ2y+2pi6pOiCt8hBBOo/Nlq6GQM+9fVrvALfVfqez+I7ZZcSvtdx86952ddCd3VCnt5e7ZcKehvFSHMGUnWc9OQw0FxRqEO2pYB8Cdq+7ctQpBSrVW397SQMOcq1z9uw8pm2pPenN6SgQpKb4auEXO/d7UX1tcHZmjLvAgJt/nLb7NIaU4rw5ugJgIkYeLJ6f4xTVwN8EY5H7Nk3PTRa9qNB+lDv6KdAPjfPi83zpPUIomT3k/dx3ceUXBymbHsX/6m+nuCyanGW7EcvbdfFW50NdL8QissrtP+NXFRLNfCHAy/Pf0oBFK0sXOcNQDAAYL/AS38U8p+OjFHlPntiDRorx18MeiF6+WcHMDcS94zy6kxYoShmg4KbrKUvSIOqmT4Mp3v2kVvbqeAJd1UsM81Nor3w+ut7xUtTA1ZUvbOL9wUee25lEJ/1CTQ/qRVSR48A8N8oFzmxoxN/Xb97UJ0AvQGuD/zryOEyp3K8qqfAO/LtHNlza42u2eGjV0NFsT3FlwxIUQGig2bCUUBGob56ShId4GdxYceagJUrJH3eCm/09M7Ghol1RH7my5Qbaa4AB3F/jYovU5CWZtrkFwdcU/+jR8zmgXuLP8zg4Gq8c78+Ph0u034uhZDvDFm+xg+JSmnoqIhQ/z4Z7eB776XbIBVztGnRfcdOIFk7OcHd1b/CN25vekwgbDzpD+qwSWSz7kig+Al8v5Qmc4xHIgF+3yiE20TPIry5ZH+q0ZFx211bLFduDgwHUhxfLIscG00XPonpRgcQOdaWpjuCBms1+Y4U7PFbKDly5LvKRGxzHb+QVMVwKtF9TfGfwTdvDnhVQL6fAp4wGLrJdAPe/VWQA78+G57LdfrbxjMn92Wt3uSPBSziFLaPcMTq/BcPo48FJWeM80HV0zQrTtwzzgTiuQsQket3hqvH6xNzgdPATpee8fdg/Pe+wOxS27JpjhcsnJhA3202joXT1/ljADWKn658zzahwNPgCu+yBNMTG6Jyzgzoz7dVvwxs49NKsvqsiTWq3MCS50EpBm8d1IOLSOaz41VkS0PUf84IpvOZAoxHcq9KDlpvaaA3liyBPygbsLmdgHChn5wc3bIshpW8VHgms4I0SCEt7DcRm8syVsTuKc2djAR57dqVPDtT6jwK25p4y5jHQO8NlvSGsfIi4JXOtZ6Pxq3sUqEdz0Z2zAjeno7DG3Ga/maNRFdMzBxtnWQY2Y0bnA50pOO19ZDnjZ22dowmE48hYLnrj6HCvZR9+3yJVQ2Om/oGxAo1YyfnDTvc6r0XE++s4SzhTSaj+ngd55D4ga8NJXm1GRgMjFc9zgpnNr3ZA4kTpuFVcJbppBBuaADjmjbOLgpnn6nR4dU06bVQZumuFx4rQphmKXro0FN037nqIJm52pUlcJeKnwVl2AOw236KWSQuCl7PUxR9VVuBjrNOvGxFzkgldahYf75Ryn+g4Oal3UNw34n2xtxTGAJxHeI3nga23GrJDh8pYscOu4LG5Z4J6+nTtyuOWAWzd95Y6SuKWAexodNu6saJ/EwW19o9vAjQuGBSQKvikSfaYbhoUM5qcEwR9aY1FQ0j3YlcRs9bPOQBQ2BP0SQgLgQaY1FAM7L5wdrdHgQYa1+mUgEoo7tDQS3DtrdkeRpOX7ozHgmyLVHWQWd0PFwYM91h10gkkom5sX3PFTpD2lAKJxCVFp4HYRIf0RRonW2hjwVXiP9Le1UV2bLnP15gO3guKYT7TfDB7lrmKs4Ja922b5VKFUQ+RG+0Fw2+74TS3HDnb3yzmttiBNA11xZ6OzwAzgQZZGP8f97X73i8K/b7f748/vNTeeMePJmI3KRhWNndPBTfNQDmAI4HeLGZ7B/jIMLgoWMRLcdPbG5DnAhkCsZjInwU3TzeZU6VCuYQVv/flI8NLtmM9JEBDvlfZyEtzcHOZR5AFBJtXxHgSvvK7pT4LA6CzfIRkCLw1TP5m01TGK9GB3WG7r6dAhihRP5TTwcllPp7BQMUAZ9YZ69eCmeTrrLnDBwNirM0+Zwct1fZ/os1cxBNdCkRPWq17vbHWI9JhzGCRHfUP7I5pb6m5TqLjLY2hEa719/E8D/vhpnysb7rgc2PFd54RW12AExvL2KVRwHEjZl6LJqE3G0FN4ixOJSxwuZ7P8Z63DMO0Xa7DR3V2qaIxww5f9GyS/N2+ScV0XR3jZcteXGI4PRVUNjfLf22Ny6EqcCYUq+PiTAs62L5FL5iS6FIF6f5NRY3Jnlu35l98coNcP0PsT4OeNt+Xb8ui43bkO22GKmjQ+P25ZwaO4ZdE1AQhVv8ErZPf3L9VLSRpl+/v6ZFuzQn5JQtXTauW4obc7rNdF4ZcqisPucXKdlerokZAk1rIuS/9b8P8ABQeukkyIrV0AAAAASUVORK5CYII=;" vertex="1" parent="Uzhfiwogue9IJAyO5cRf-36">
          <mxGeometry x="1.7699999999999998" y="950" width="36.47" height="30" as="geometry" />
        </mxCell>
        <mxCell id="Uzhfiwogue9IJAyO5cRf-52" value="" style="shape=image;verticalLabelPosition=bottom;labelBackgroundColor=default;verticalAlign=top;aspect=fixed;imageAspect=0;image=data:image/jpeg,/9j/4AAQSkZJRgABAQAAAQABAAD/2wCEAAkGBw8TEBASEg4QEBISDxYRFxUVEg8PEhAVFREWFhURFRcYICgiGBolGxUVITEhJSkrLi4uFyAzODMuNygtLi0BCgoKDg0OGxAQGy0lICYtNy03MDI1LS0wNS8tNzctLTUtLS0tLS8vMi0tLS0tLTUtLTUvKy0tLysvMC0rLS0vLf/AABEIAL8BBwMBIgACEQEDEQH/xAAbAAEAAgMBAQAAAAAAAAAAAAAABAUBAgcGA//EAEQQAAIBAgIGBgYHBgQHAAAAAAABAgMRBAUGITFBUWESNFJxkbMVNXN0gcEiMkJicqGxEyOD4fDxQ4KS0SRTY6KywtL/xAAaAQEAAgMBAAAAAAAAAAAAAAAABAUCAwYB/8QAMxEAAgECAwUHBAIBBQAAAAAAAAECAwQRIXEFIjEyURIzQXKxwdGBkaHwE2FCFCOS4fH/2gAMAwEAAhEDEQA/AOsaQ55SwlLpz+lKTtCCdnN9+6K3vdzbSfL800kxdeT6VeUY7oU3KlBLhZa5f5mz76bZi62MrK+qk3RiuCg7S8ZdLX3cCiK6vWcpYJ5HU7PsKdOmpzWMmsc88MfDXr4llk2dV8NPpU5Xi3eUZXcJ98dz5rWdIyHSHD4pWi+hVSu6cmulzcX9pc18UjkptCTTTTcWndNNpp8U1sZjSryhobrvZ9K4WPCXVe/X1/s7hYWPDaPabNWp4rWtiqpa17RL/wAl4bz29GpGUVKMlKMldNNNNcU1tJ8KkZrGJzFza1beXZqL6+D0ZtYWMmDYRxYWAAFhYAAWFgABYWAAFhYAAWFgABYWAAFhYAAWFgABYWMms5JJttJJXbbSSS2tvcAZsVWeZ9h8LH6b6U2rxpxt05c32Vzfwuee0i02SvTw2t7HVa1L2ae3verk9p4arUlKTlKTcpO7k25OT4tvaRKtyllDP0Lmz2TKe/WyXTx+vT1LLO8+r4mV5y6ME7xpxbjCPN8XzfwsYyvSDF0GnCtNpfYm5VKb5dFvV8LMqwQ+3LHHHMv/APT0ux2OysOmC/8Afzj/AGdi0a0hp4um2l0KkLKcL9Jq+yS4xdnr5A5Xk2Zzw9WNWGuycWt0k1sfxs/gCbTuYuO9xKC52TVVR/wrd/cjGd9ZxHt6vmSIRLzjrOI94q+ZIiEGXFnQ0XjBaAAGJsBbZFpDXwsvovpU27unJtwfFrg+a+NypB6m08UYzpxqR7M1ijr+SZ7QxUb05Wml9KnKynHnzXNfkWhxChVlGSlGTjKLupJtNPimj3Wj2mydqeJtF7FVStF/iS+r3rV3E+lcp5Ty9DnLzZMob9HNdPFadfU9qYEZJpNNNNXTWtNcUzJKKYwAAAAAAAAAAAAAAAAAAAZAMGTDZ5DSHTWEL08PapPY6n1qcfw9t89neYTqRgsZG+3t6leXZprH0Wpf5znNDDR6VWX0mvowVnOfcuHN6jm2f6SV8U7N9Cle6hF6uTk/tP8ALgirxFec5SnOcpSk7uUnds+RX1a8p5cF+8TprPZtO33nnLr00Xvx+mQABoLEAAAGTD/uZNsaTaxIdW8jTl2cMSTnj/4rFe81fNkRCXn3WsT7xV82RBjI8xWODPey+ypR44H0TBo1vW39TaE78meSjhmjbTqqWTyZkAGBuAAALzINJa+FaV/2lK+uEnqXOD+y/wAuR0fJ84oYmHSpT1pfSg7KcO9fNajjh9cNiJ05qdOcoyjslF2a/lyN9KvKGXFFdebNp3G8spdeuq9+P0O3GDyWj2mkJ2p4i1OexT2U5/i7D/Lu2HriwhOM1jE5ivb1KEuzUWHo9GYBkwZmkAAAAAAAAAAyZAMEHNs1oYeHTqTtfZFa5zfCK39+xbyi0h0yp0r06HRq1Nje2nB/D675LVz3HPsZi6lWbqVJynJ7W9vcuC5LURqtyo5RzZbWeyp1d+rux/L+Pr9uDLjSHSmviLxX7qj2U7OXOo/td2zv2lAAQJScnizpaVKFKPYgsEAAYmYAM/1Y9Sx4HkpKKxlwMANnzlM3KCjmyuqXE6m7DJfn/r9zN3IEdzB7/KYK1yLLP+t4n3ir5siCTs/63iveKvmyIBofEsYcq09jZMnZLBSxNFcZ28bleWmi/XKHtY/MzptqS1NF1BOlN/0/Qtc1yHW3BdF8NkX3cP07jz9SDi2mmmtqepo6vicIpLYeezXJ4y1SXdJamv64EyrbKWccvQo7Pa06eEaua6+K+VrmeGBMx+W1KT2XjxWz48GQyDKLi8GdJTqwqR7UHigADEzB6DR7Sqth7QlerR7LeuK/6b3d2zu2nnwZRk4vFGurShVj2JrFHZsqzOjiIdOlNSW9bJQfCS3fpwJpxPBY2pSmqlKcoSW9cODWxrkzoWj2mNKtanX6NGrsUtlOb5N/VfJ+O4n0rlSylkzm7zZU6W9T3o/lfK/tfhHqQbGCSVJgAyAYMmTzGkOl1KhenStWrLVt/dwf3mtr+6vi0YzmoLGRto0alaXYprF/vEvMxzCjQh06s1COxb3J9mK2tnOtItLKuIvCF6NF6uin9Oa++1u+6tXG5SZhj6tabqVZubfHZFdmK2JckRivq3Ep5LJHS2ey6dHCc96X4Wny/sAARy0AAABtTg20km29SS1tkrAZbUqvUrR3t6ku7nyPU5flsKa+irt7ZP6z/wBlyN9KhKpnwRX3m0advu8ZdPl+3ErMsyJapVNb7G5fie/u2d5WaQaq8lsso8vsRPeYfC3PCaZLo42quEaflwJNWMaUN0qLWrUu7huo/wDH6LNcConM+TkYbMEKUsS+hTUVkbA1BibC3z/reK94q+bIgE/P+t4r3ir5siAHxPYcq09gWmi/XcN7WPzKstNF+u4b2sfmZQ51qYXHcz8r9GdYsfKtQTVmj7AtziCgx2AtfVdP4/BnlszyO15U/wDT/wDL+R0aUEyrxmB3rZ+hhOnGawkb7e5qUJdqm/h6o5hOLTaad1tT1NGp7PM8qhU2q0t0lt/mjy2NwFSk/pK63SWx/wCz5FfVoShn4HT2e0adxu8JdPjrpxIoANBYAAA9PTaO6XVsPaFS9aitW395TX3G9q+6/g0dEy7MKNeCqUpqceW2L7MltT5M4qSsuzGtQmqlKbi9+9SXZa2NEilcOGTzRVXmy6dbehuy/D1+V9jtJHx2NpUYOpVmoQW973wS2t8keShp9H9jd0X+32dFP90/v32pfd289543M80rYifTqzbe5bIwXBLcv6dyTO5ilu5lXb7Iqzl/u7qX3enh9WXukemNStenR6VGlsbvapNc2ti5Lx3HlTIIEpuTxZ0dGhTox7NNYL949f3wyAAMTaACVgcBUquyWpbZPVGP8+R6k28EYznGEXKTwS8WRopt2Sbb1WWtvkX2W5FslU/0L/2fyRaZdlUKWxdKW+T29y4It8PhWydStks5/Y5282vKe5RyXXxenT10I9DD6kkkktSSVku4s8NgyTh8KkTIxsSylPnSopHK9POv1vw0/IidaOS6eesK/dT8mmRrvkWpa7H7+Xlfqjz4AK46QAAAt8/63iveKvmyIBPz/reK94q+bIgHr4nsOVaewLTRfruG9rH5lWWmi/XcN7WPzMoc61MLjuZ+V+jOsgAtziAYaMgAg4rBp60vh/sVGKwiaaaTT2pq6Z6Uj4jDJ61t/UA55mWSNXlDWuzvX4Xv7ikkvh8jpVfDcikzPKYVNdujLtL58SJVtk84fYu7Pa8o7lfNdfH69fXU8eCRjMFOm7NdzWz4MjkFpp4M6GE4zipReKfiAAeGQAAAAAAMpH3weCqVJWhG/F7IrvZ6jLcohTs/rz7TWz8K3G6lRlU4cCFd39K3WDzl0+en7gmVeW5E5WlVul2dkvjw/XuPSYbDJJRjFJLYkrJEmhhWy0w+ESLCnSjBZHL3N3VuJYzf08F+9WRcNgyypUUj6xhY2NhGCQAABybTz1hX7qfkwOsnJNO/WGI7qfkwIt3yLUttjd/Ly+8SgABXnRgAAFvn/W8V7xV82RAJ+f8AW8V7xV82RAPXxPYcq09gWmi/XcN7WPzKstNF+u4b2sfmZQ51qYXHcz8r9GdZABbnEAAAAAAHyrUVLvK6tQ3NFsaVKaa1/wBgDzeLwSkmnFNPc9Z5jMsklG8qd2uztl8OP6957ytRtqf9yHWw5rqUozWDJNtd1beWMHqvB/vVHN2jB63M8njO7X0Z8Vv/ABLeeZxWEnTdpRtwe1fBldUoyp8eB1Fpf0rhYLKXTx+nX9xSPgAfbDYWdSXRhHX+S533GtLF4ImSkoptvBI+KRcZbkkp2lUvCPDZJ/y/Ms8syiFO0n9OfHcvwr5l1Qw7ZMpWvjP7fJQXm129yh/y+Pn7YZMj4TCqKUYxUUtyLXDYMkYbCWJ8IJE0oW8Xiz5UaCR90jIAAAAAAAByTTv1hiO6n5EDrZyTTr1hiP4fkQIt3yLUttjd/Ly+8SgABXnRgAAFvn/W8V7xV82RAJ+f9bxXvFXzZEA9fE9hyrT2BaaL9dw3tY/Mqy00X67hvax+ZlDnWphcdzPyv0Z1kAFucQAAAAAAAAAazimrMhVqLXNcSeYaAKipRTK7G4GMk1KKaZe1qDWzWv0MRwy3g9TaeKPDPR1dP67VP/u7uHxLjCYOMUowior9eb4svKuEuZo4SxhCnGHKjfWu61ZJVJY4fv3IuGwhaUKCRvCCR9UZkczFG5qjYAAAAAAAAAAHI9OfWGI/h+RA64cj069Y4j+H5ECLd8q1+S22N38vL7xKEAFedGAAAW+f9bxXvFXzZEAn5/1vFe8VfNkQD18T2HKtPYFpov13De1j8yrLTRfruG9rH5mUOdamFx3M/K/RnWQAW5xAAAAAAAAAAMxjc2hT4n1SAMRgkfGrR3rwJAAIVjKR96tLej4gGTY1NgDZGxqjYAAAAAAAAAAHJNOvWOI/h+RA62cj059YYn+H5MCNd8i1+S22N38vL7xKEAFcdGAAAW+f9bxXvFXzZEAn5/1vFe8VfNkQD18T2HKtPYFpov13De1j8yrLTRfruG9rH5mUOdamFx3M/K/RnWQAW5xAAAAANoxbANUj6wp8TeMUjIAAAAAAANKlO/ebgAitGx9pxufJqwBlGxqjYAAAAAAAAAAHItOPWGJ76fkwOunItOPWGJ74eTAi3fItfkttjd/Ly+8SiABXnRgAAFvn/W8V7xV82RAJ2fdaxPvFXzZEE9fFntPkWi9AWmi/XcN7WPzKstNF+u4b2sfmZQ51qYXHcz8r9GdZABbnEAGUrn1hC3eAawp8T6gAAAAAAAAAAAAAAw1cyAD5ONjJ9DRoAwAAAAAAAAAci049YYnvh5MDrpyLTf1hiO+HkwIt3yrX2ZbbG7+Xl94lEACvOjAAAPWafZXKjjJyt9Cs3Ui913b9pHvUnfumjzZ3LPMopYmi6VRO1+lGSspU5rZOL3PW+Tu09TOXZ5odi8NeVo1qS/xIyjBpfehJ3T7rkqtQkm2uBWbP2hCcFTm8JLLXDh+DzxaaL9dw3tY/MqHUiWejOIisZh23/ix3PmaILeWpPryX8U8/8X6M66bQhfuPhDF097/Jm/pCl2n4MtziiUlYyRPSFLtPwY9IUu0/BgEsET0hS7T8GPSFLtPwYBLBE9IUu0/Bj0hS7T8GASwRPSFLtPwY9IUu0/BgEsET0hS7T8GPSFLtPwYBLBE9IUu0/Bj0hS7T8GASwRPSFLtPwY9IUu0/BgEsET0hS7T8GPSFLtPwYBJaNT4ekKXafgzDx1LtPwYBIBF9IUu0/Bj0hS7T8GASgRfSFLtPwY9IUu0/BgEo5Fpv6wxHfDyoHVPSFLtPwZybTTERePxDT1Nw3P8A5USLd8q1+S22O8K8vL7xKgwa/tUeiyHQ/F4q0oxjTpP7c5Rkv8sIu7fJ2XMgxhKWSRfVK1Omu1JpI+GimRvGYhU9ahGLnOS+wrNR+LlbVwT4A67kGRUcJS/Z01dt3nOVulUl2pW/JbEZLCnbxUd5ZnP3G06s6jdJ4RP/2Q==;" vertex="1" parent="Uzhfiwogue9IJAyO5cRf-36">
          <mxGeometry x="1.77" y="990" width="38.23" height="27.76" as="geometry" />
        </mxCell>
        <mxCell id="Uzhfiwogue9IJAyO5cRf-53" value="@jrm" style="text;strokeColor=none;align=center;fillColor=none;html=1;verticalAlign=middle;whiteSpace=wrap;rounded=0;" vertex="1" parent="Uzhfiwogue9IJAyO5cRf-36">
          <mxGeometry x="35" y="875" width="65" height="30" as="geometry" />
        </mxCell>
        <mxCell id="Uzhfiwogue9IJAyO5cRf-54" value="jrm@gmail.com" style="text;strokeColor=none;align=center;fillColor=none;html=1;verticalAlign=middle;whiteSpace=wrap;rounded=0;" vertex="1" parent="Uzhfiwogue9IJAyO5cRf-36">
          <mxGeometry x="35" y="987.76" width="115" height="30" as="geometry" />
        </mxCell>
        <mxCell id="Uzhfiwogue9IJAyO5cRf-55" value="jrm&amp;nbsp;" style="text;strokeColor=none;align=center;fillColor=none;html=1;verticalAlign=middle;whiteSpace=wrap;rounded=0;" vertex="1" parent="Uzhfiwogue9IJAyO5cRf-36">
          <mxGeometry x="35" y="950" width="60" height="30" as="geometry" />
        </mxCell>
        <mxCell id="Uzhfiwogue9IJAyO5cRf-56" value="jrm" style="text;strokeColor=none;align=center;fillColor=none;html=1;verticalAlign=middle;whiteSpace=wrap;rounded=0;" vertex="1" parent="Uzhfiwogue9IJAyO5cRf-36">
          <mxGeometry x="35.00000000000001" y="910" width="60" height="30" as="geometry" />
        </mxCell>
        <mxCell id="Uzhfiwogue9IJAyO5cRf-12" value="&lt;h1&gt;Heading&lt;/h1&gt;&lt;p&gt;Lorem ipsum dolor sit amet, consectetur adipisicing elit, sed do eiusmod tempor incididunt ut labore et dolore magna aliqua.&lt;/p&gt;" style="text;html=1;strokeColor=none;fillColor=none;spacing=5;spacingTop=-20;whiteSpace=wrap;overflow=hidden;rounded=0;" vertex="1" parent="1">
          <mxGeometry x="-480" y="-520" width="1130" height="160" as="geometry" />
        </mxCell>
        <mxCell id="Uzhfiwogue9IJAyO5cRf-20" value="" style="strokeWidth=1;shadow=0;dashed=0;align=center;html=1;shape=mxgraph.mockup.containers.browserWindow;rSize=0;strokeColor=#666666;strokeColor2=#008cff;strokeColor3=#c4c4c4;mainText=,;recursiveResize=0;" vertex="1" parent="1">
          <mxGeometry x="-827" y="-310" width="1480" height="960" as="geometry" />
        </mxCell>
        <mxCell id="Uzhfiwogue9IJAyO5cRf-21" value="Page 2" style="strokeWidth=1;shadow=0;dashed=0;align=center;html=1;shape=mxgraph.mockup.containers.anchor;fontSize=17;fontColor=#666666;align=left;whiteSpace=wrap;" vertex="1" parent="Uzhfiwogue9IJAyO5cRf-20">
          <mxGeometry x="60" y="12" width="110" height="26" as="geometry" />
        </mxCell>
        <mxCell id="Uzhfiwogue9IJAyO5cRf-22" value="https://www.draw.io" style="strokeWidth=1;shadow=0;dashed=0;align=center;html=1;shape=mxgraph.mockup.containers.anchor;rSize=0;fontSize=17;fontColor=#666666;align=left;" vertex="1" parent="Uzhfiwogue9IJAyO5cRf-20">
          <mxGeometry x="130" y="60" width="250" height="26" as="geometry" />
        </mxCell>
        <mxCell id="Uzhfiwogue9IJAyO5cRf-27" value="" style="rounded=0;whiteSpace=wrap;html=1;fillColor=#000033;strokeColor=#6c8ebf;" vertex="1" parent="Uzhfiwogue9IJAyO5cRf-20">
          <mxGeometry y="110" width="1480" height="60" as="geometry" />
        </mxCell>
        <mxCell id="Uzhfiwogue9IJAyO5cRf-28" value="" style="shape=image;verticalLabelPosition=bottom;labelBackgroundColor=default;verticalAlign=top;aspect=fixed;imageAspect=0;image=data:image/png,iVBORw0KGgoAAAANSUhEUgAAAIQAAACECAMAAABmmnOVAAAAYFBMVEUAAAD///89PT2YmJjBwcHs7OwgICAjIyP7+/sxMTHU1NTo6Oj19fXLy8v4+PgbGxuAgIBLS0tEREQLCwuOjo7b29tWVlYUFBStra1ycnJjY2OIiIinp6dbW1u4uLgpKSmGNJ26AAAE0UlEQVR4nO2Z6ZKzKhCGG9FERRR3ccv93+XXBjHGLM6JQ6ZOFe+P1Jg48EgvNC2AlZWVlZWVlZWVlZWVlZWVldX/R0lbpVlwSer8rwgc0dA0OCd/BoBquMDPS1tQSkV1/guENKIA0o2Ill82IvguwxAJqEpyk+9PnyWtvsdQez0IXwOwXrbD0ErRlLggXfIliIbBoBH4sP5l6Esypl+BIBK8maF7+PFEy1CYZ5B+ImYG+uz3fGi4NA0xhsAVg/fqloBywz7Km5q9MsZNtDfpG3nZBypBxG+fNhDiYhLCURCR8/5ORwzvbzgg3lxUcHg7EJhZpak06rqgsmW0b/W8yszscLTU0fGTQAyy2gRE6tf0TZp4xDiZoCDDRUGUP7u/NrGf8HF2CvLDGMwN+IVgUPwXeyiQzHnuHInzme96ElSm8KZxV4UFB0rWijjVYZzh5bOQDvD77BOIvtSTFXgV3iZ1NxBTWm3UAjgT82PWcNgLuF05UXpW+Yqd9iAICXMNQcJtMXq+/vNHENCE0KkZ+n0INJKGIOFmIGXKzyByUum5032Iq/86K6BFc9L7DGLKmum82CB3IbzTAjEt3aKRHIIAr4BGjdCBFKLcQDDRCSGorgLFDWIV1j05CFH5zmwHf9qv3Q2Etj3T398grhF1x/AxxBSmqUoWrH4NMRejbA0x73sdOQ6Ro0HE8pz8BUSgLqM7CH+qyFae9DkEjt9qz6L6sR4gMnXp3UGQKIN2dXkAAgQmwFAvcP8cYrZ7eQ9BvNZfXx6AgKaEi/K8eFCLsoUYYnXZbCA2OgIB4QiOmiYOrhQLhDdO4noWaQiiTpIaPIqxqszsTBQvkhUGhxmI0WOMRRj0UlGwDOP0BYRcQayS/PL3xxB8mUDnArTItp5QamAFsSo/wvPvQHgtUszhhhapnkGo3WKByDVFCMnvQERZFXW6Y+K18AQizu8h4KQiCh3l8ErMibqFNhKaIsZVmY+pZVnqjlazgYDrUZadfwFi3kNHPIfgJqk7N92cOaY8kem1qDYQE4U3FeqHIXTuH6sgRbOn3gLlzhCak5T1BgKy8HpYOAwR6NWOPW+aO5v9rQyg8BVEMufLdWVF1mMchlieU4kvQRsNuMers5n2UsynhiB0wTILk5WuUtAT5x6OjkZuDMK5p8DQkLOJmB512bBbUxAQ8DXEGFEIZi5fl3D6DpaYgsAn1e1t1gRwZmGymKRUDRSdE0nloAOj4jsI9d1e22lXl1QWXeuow38TYe7SFXZ/jcJLoJTD+TTp/gj27LvDknEPtatNsN/YNdLEwbOlh/Wj9tiw3WEw1XEVcZ9Dr9NUuNPqBEMvjhzOWki1TXz+ppcppCkIHNvHk8hikzdG4dXZjFdc1fhYybRLDRXRp70YQcAx0tmblbkMM7dcMOKwe0gG0uew47lH1YZTiLa3ujbidN0BPmNakyfDEHjyCfFEAE5/e2dI/HKknZSy6Ce4ETqDLqGVul6P3iC5R57IheoL76lQWV9ymWNCcCP/HiHCaqzfH+CXJDhzJ9NXxVhqED8sLiCab72+vEq6jKsXt3VQtW027VjCfffyyoiCgfKQN0VbpWlatd3oFkf37w+VStqPrus2VHznBa6VlZWVlZWVlZWVlZWVlZWV1W/pH4yyOPt3DC3wAAAAAElFTkSuQmCC;" vertex="1" parent="Uzhfiwogue9IJAyO5cRf-20">
          <mxGeometry y="110" width="60" height="60" as="geometry" />
        </mxCell>
        <mxCell id="Uzhfiwogue9IJAyO5cRf-29" value="inicio" style="text;align=center;html=1;verticalAlign=middle;whiteSpace=wrap;rounded=0;fontColor=#FFFFFF;" vertex="1" parent="Uzhfiwogue9IJAyO5cRf-20">
          <mxGeometry x="987" y="125" width="60" height="30" as="geometry" />
        </mxCell>
        <mxCell id="Uzhfiwogue9IJAyO5cRf-57" value="hombre" style="text;align=center;html=1;verticalAlign=middle;whiteSpace=wrap;rounded=0;fontColor=#FFFFFF;" vertex="1" parent="Uzhfiwogue9IJAyO5cRf-20">
          <mxGeometry x="1097" y="125" width="60" height="30" as="geometry" />
        </mxCell>
        <mxCell id="Uzhfiwogue9IJAyO5cRf-58" value="mujer" style="text;align=center;html=1;verticalAlign=middle;whiteSpace=wrap;rounded=0;fontColor=#FFFFFF;" vertex="1" parent="Uzhfiwogue9IJAyO5cRf-20">
          <mxGeometry x="1211" y="125" width="60" height="30" as="geometry" />
        </mxCell>
        <mxCell id="Uzhfiwogue9IJAyO5cRf-59" value="contacto" style="text;align=center;html=1;verticalAlign=middle;whiteSpace=wrap;rounded=0;fontColor=#FFFFFF;" vertex="1" parent="Uzhfiwogue9IJAyO5cRf-20">
          <mxGeometry x="1307" y="125" width="60" height="30" as="geometry" />
        </mxCell>
        <mxCell id="Uzhfiwogue9IJAyO5cRf-60" value="" style="verticalLabelPosition=bottom;shadow=0;dashed=0;align=center;html=1;verticalAlign=top;strokeWidth=1;shape=mxgraph.mockup.graphics.simpleIcon;strokeColor=#999999;" vertex="1" parent="Uzhfiwogue9IJAyO5cRf-20">
          <mxGeometry y="170" width="750" height="790" as="geometry" />
        </mxCell>
        <mxCell id="Uzhfiwogue9IJAyO5cRf-61" value="" style="verticalLabelPosition=bottom;shadow=0;dashed=0;align=center;html=1;verticalAlign=top;strokeWidth=1;shape=mxgraph.mockup.graphics.simpleIcon;strokeColor=#999999;" vertex="1" parent="Uzhfiwogue9IJAyO5cRf-20">
          <mxGeometry x="750" y="170" width="730" height="790" as="geometry" />
        </mxCell>
        <mxCell id="Uzhfiwogue9IJAyO5cRf-62" value="hombre" style="text;strokeColor=none;align=center;fillColor=none;html=1;verticalAlign=middle;whiteSpace=wrap;rounded=0;" vertex="1" parent="Uzhfiwogue9IJAyO5cRf-20">
          <mxGeometry x="157" y="170" width="363" height="110" as="geometry" />
        </mxCell>
        <mxCell id="Uzhfiwogue9IJAyO5cRf-63" value="mujer" style="text;strokeColor=none;align=center;fillColor=none;html=1;verticalAlign=middle;whiteSpace=wrap;rounded=0;" vertex="1" parent="Uzhfiwogue9IJAyO5cRf-20">
          <mxGeometry x="933.5" y="170" width="363" height="110" as="geometry" />
        </mxCell>
      </root>
    </mxGraphModel>
  </diagram>
</mxfile>
